<?xml version="1.0" encoding="utf-8"?>
<!-- Generator: Adobe Illustrator 16.0.0, SVG Export Plug-In . SVG Version: 6.00 Build 0)  -->
<!DOCTYPE svg PUBLIC "-//W3C//DTD SVG 1.1//EN" "http://www.w3.org/Graphics/SVG/1.1/DTD/svg11.dtd">
<svg version="1.1" id="Group_2_copy_2_1_" xmlns="http://www.w3.org/2000/svg" xmlns:xlink="http://www.w3.org/1999/xlink" x="0px"
	 y="0px" width="119.867px" height="117.018px" viewBox="23.588 27.586 119.867 117.018"
	 enable-background="new 23.588 27.586 119.867 117.018" xml:space="preserve">
<g id="_x31_" opacity="0.502">
	<g>
		<path fill="#FFFFFF" d="M110.361,50.415c-1.109,1.183-2.311,2.382-3.604,3.601c-1.293,1.219-2.551,2.327-3.771,3.325
			c-1.219,0.997-2.348,1.811-3.383,2.438c-1.035,0.629-1.812,0.942-2.328,0.942c-6.948,0-12.271-0.61-15.966-1.829
			c-3.697-1.219-5.544-2.455-5.544-3.712c0-0.812,0.776-1.477,2.328-1.995c1.552-0.516,3.954-0.775,7.206-0.775
			c0.813,0,2.033-0.61,3.66-1.829c1.625-1.219,3.564-2.751,5.82-4.599c2.254-1.846,4.748-3.84,7.484-5.984
			c2.734-2.142,5.543-4.137,8.428-5.984c2.883-1.846,5.801-3.38,8.758-4.599c2.957-1.219,5.84-1.829,8.648-1.829
			c3.992,0,6.654,0.277,7.984,0.831c1.33,0.554,1.996,1.349,1.996,2.382c0,1.108-0.15,2.476-0.443,4.1
			c-0.297,1.626-0.443,3.546-0.443,5.762c-0.814,5.319-1.553,10.122-2.219,14.406c-0.664,4.286-1.424,9.142-2.273,14.572
			c-0.85,5.43-1.682,10.934-2.494,16.511c-0.813,5.579-1.59,11.009-2.328,16.29c-0.739,5.282-1.368,9.881-1.885,13.796
			c-0.223,0.888-0.5,2.216-0.832,3.989s-0.795,3.712-1.387,5.816c-0.592,2.105-1.313,4.25-2.162,6.428
			c-0.85,2.181-1.867,4.175-3.049,5.984c-1.184,1.812-2.568,3.287-4.158,4.432c-1.59,1.146-3.381,1.719-5.377,1.719
			c-2.439,0-4.732-0.146-6.875-0.443c-2.145-0.293-3.992-0.757-5.543-1.385c-1.553-0.627-2.773-1.439-3.66-2.438
			s-1.33-2.197-1.33-3.603c0-0.59,0.037-1.181,0.111-1.772c0.072-0.59,0.369-1.33,0.887-2.217c1.182-4.283,2.346-8.733,3.492-13.353
			c1.146-4.616,2.254-9.253,3.326-13.907s2.088-9.253,3.051-13.796c0.959-4.544,1.846-8.846,2.66-12.91
			C107.072,69.253,108.808,59.797,110.361,50.415z"/>
	</g>
</g>
<g id="Negen">
	<g>
		<path fill="#FFFFFF" d="M32.964,77.882c0.355-2.294,0.748-4.31,1.18-6.043c0.431-1.733,0.89-3.23,1.375-4.493
			c0.485-1.262,0.985-2.312,1.5-3.151c0.515-0.84,1.042-1.52,1.579-2.041c0.538-0.521,1.076-0.91,1.616-1.169
			c0.539-0.257,1.074-0.433,1.604-0.525c0.615-0.107,1.165-0.049,1.651,0.172c0.486,0.221,0.911,0.542,1.272,0.959
			c0.362,0.42,0.655,0.899,0.88,1.44c0.225,0.542,0.384,1.083,0.478,1.625c0.11,0.638,0.183,1.356,0.218,2.154
			c0.034,0.799,0.054,1.646,0.056,2.544s-0.005,1.827-0.024,2.788c-0.02,0.961-0.023,1.915-0.013,2.859
			c0.011,0.945,0.043,1.871,0.097,2.775c0.053,0.905,0.147,1.75,0.284,2.537c0.044,0.255,0.101,0.538,0.171,0.848
			c0.07,0.311,0.16,0.624,0.269,0.938c0.109,0.315,0.241,0.617,0.395,0.909c0.154,0.29,0.34,0.542,0.558,0.756
			c0.217,0.214,0.467,0.371,0.753,0.477c0.285,0.104,0.608,0.125,0.969,0.063c0.509-0.09,1.024-0.311,1.548-0.665
			c0.522-0.354,1.023-0.772,1.501-1.255c0.479-0.483,0.926-0.992,1.34-1.531c0.415-0.537,0.776-1.032,1.086-1.485
			c0.308-0.453,0.549-0.829,0.721-1.128c0.173-0.298,0.258-0.452,0.256-0.463l1.554,3.292c-0.26,0.516-0.568,1.039-0.925,1.566
			c-0.356,0.527-0.748,1.037-1.176,1.525c-0.428,0.492-0.89,0.961-1.387,1.4c-0.497,0.441-1.014,0.842-1.553,1.199
			c-0.539,0.355-1.09,0.658-1.653,0.904s-1.131,0.418-1.703,0.518c-0.743,0.13-1.417,0.115-2.022-0.041
			c-0.606-0.156-1.151-0.418-1.634-0.782c-0.484-0.364-0.914-0.813-1.29-1.344c-0.376-0.531-0.702-1.106-0.979-1.728
			c-0.277-0.619-0.508-1.258-0.692-1.916c-0.186-0.657-0.332-1.299-0.44-1.926c-0.144-0.828-0.219-1.653-0.224-2.473
			c-0.006-0.821,0.02-1.632,0.077-2.436c0.057-0.804,0.138-1.593,0.245-2.366c0.106-0.774,0.194-1.525,0.265-2.255
			c0.07-0.729,0.114-1.433,0.134-2.109c0.019-0.676-0.024-1.317-0.129-1.923c-0.028-0.159-0.075-0.371-0.143-0.632
			c-0.067-0.262-0.157-0.509-0.268-0.741c-0.111-0.233-0.257-0.426-0.436-0.582c-0.18-0.154-0.397-0.209-0.651-0.165
			c-0.424,0.074-0.827,0.35-1.208,0.827s-0.747,1.108-1.097,1.891c-0.351,0.784-0.681,1.698-0.991,2.742
			c-0.311,1.045-0.605,2.165-0.885,3.357c-0.278,1.193-0.543,2.443-0.791,3.75c-0.249,1.308-0.479,2.618-0.694,3.931
			c-0.215,1.313-0.419,2.604-0.614,3.875c-0.195,1.271-0.375,2.47-0.541,3.593c-0.197,0.625-0.468,1.092-0.814,1.397
			c-0.345,0.308-0.756,0.502-1.233,0.584c-0.276,0.049-0.554,0.037-0.833-0.035c-0.28-0.071-0.541-0.203-0.782-0.397
			c-0.241-0.192-0.449-0.446-0.623-0.762c-0.175-0.313-0.299-0.683-0.373-1.108c-0.078-0.447-0.126-0.854-0.146-1.223
			c-0.02-0.368-0.021-0.747,0-1.133c0.054-1.258,0.106-2.421,0.156-3.493c0.049-1.07,0.087-2.089,0.116-3.058
			c0.029-0.968,0.044-1.905,0.045-2.808c0.001-0.904-0.01-1.811-0.037-2.72c-0.026-0.909-0.073-1.839-0.14-2.792
			c-0.066-0.952-0.155-1.965-0.265-3.041c-0.017-0.097-0.038-0.219-0.063-0.367s-0.066-0.286-0.121-0.414
			c-0.055-0.127-0.131-0.231-0.227-0.314c-0.096-0.081-0.224-0.109-0.383-0.081c-0.212,0.037-0.452,0.183-0.718,0.438
			c-0.267,0.255-0.531,0.587-0.793,1c-0.262,0.412-0.518,0.886-0.769,1.423c-0.251,0.536-0.466,1.105-0.646,1.705
			c-0.036,0.171-0.116,0.303-0.242,0.396c-0.126,0.093-0.274,0.154-0.443,0.184c-0.138,0.024-0.289,0.004-0.453-0.061
			c-0.164-0.063-0.321-0.149-0.47-0.254c-0.149-0.106-0.279-0.223-0.389-0.351c-0.11-0.129-0.174-0.251-0.195-0.369
			c-0.011-0.063,0.001-0.121,0.036-0.17c0.142-1.263,0.365-2.35,0.67-3.262c0.307-0.914,0.667-1.67,1.081-2.274
			s0.861-1.066,1.34-1.392c0.479-0.324,0.967-0.53,1.465-0.616c0.753-0.131,1.406-0.127,1.959,0.011
			c0.554,0.139,1.025,0.385,1.414,0.739c0.389,0.354,0.702,0.805,0.939,1.355c0.237,0.55,0.417,1.176,0.539,1.876
			c0.122,0.702,0.194,1.467,0.217,2.295c0.023,0.828,0.01,1.692-0.042,2.594c-0.051,0.9-0.125,1.826-0.224,2.772
			c-0.098,0.948-0.202,1.891-0.312,2.83L32.964,77.882z"/>
		<path fill="#FFFFFF" d="M60.672,85.549c-0.996,0.174-1.9,0.146-2.709-0.086c-0.81-0.23-1.517-0.608-2.121-1.133
			c-0.604-0.523-1.1-1.166-1.489-1.924c-0.388-0.76-0.658-1.58-0.811-2.461c-0.104-0.595-0.155-1.236-0.153-1.92
			c0.001-0.683,0.066-1.365,0.194-2.045c0.128-0.679,0.322-1.34,0.582-1.981c0.26-0.642,0.593-1.226,0.998-1.751
			c0.406-0.525,0.886-0.969,1.44-1.334c0.553-0.364,1.196-0.611,1.927-0.739c0.593-0.104,1.161-0.104,1.703-0.002
			c0.542,0.103,1.031,0.294,1.467,0.574c0.436,0.28,0.803,0.646,1.099,1.097c0.297,0.451,0.498,0.98,0.603,1.587
			c0.114,0.659,0.067,1.346-0.142,2.062c-0.209,0.714-0.549,1.415-1.02,2.098c-0.471,0.685-1.062,1.324-1.772,1.918
			c-0.711,0.595-1.505,1.1-2.383,1.515c0.209,0.259,0.407,0.471,0.594,0.636s0.369,0.287,0.546,0.364
			c0.177,0.078,0.357,0.124,0.54,0.136c0.182,0.012,0.374,0,0.575-0.035c0.636-0.111,1.284-0.355,1.945-0.733
			c0.66-0.379,1.292-0.817,1.893-1.316c0.601-0.499,1.16-1.025,1.675-1.581c0.516-0.555,0.945-1.07,1.288-1.547l2.421,1.778
			c-0.765,1.129-1.608,2.159-2.528,3.085c-0.401,0.398-0.836,0.797-1.308,1.197c-0.471,0.399-0.975,0.769-1.511,1.108
			c-0.537,0.342-1.102,0.637-1.697,0.887C61.923,85.256,61.308,85.439,60.672,85.549z M57.259,78.427
			c0.381-0.066,0.78-0.238,1.197-0.514c0.416-0.275,0.791-0.6,1.125-0.975c0.333-0.377,0.601-0.768,0.804-1.175
			c0.202-0.408,0.274-0.781,0.215-1.121c-0.083-0.479-0.239-0.857-0.467-1.134c-0.228-0.277-0.469-0.395-0.724-0.351
			c-0.456,0.08-0.831,0.233-1.124,0.458c-0.294,0.228-0.527,0.495-0.696,0.804c-0.171,0.308-0.292,0.647-0.365,1.016
			c-0.073,0.369-0.113,0.733-0.122,1.097c-0.008,0.363,0.006,0.71,0.042,1.043C57.18,77.909,57.218,78.193,57.259,78.427z"/>
		<path fill="#FFFFFF" d="M73.76,81.544c-0.484,0.61-1.008,1.126-1.574,1.546c-0.566,0.421-1.14,0.683-1.723,0.786
			c-0.508,0.088-1.022,0.07-1.54-0.053c-0.519-0.122-0.997-0.346-1.436-0.669c-0.438-0.323-0.816-0.744-1.136-1.263
			c-0.319-0.52-0.54-1.129-0.662-1.831c-0.138-0.797-0.168-1.636-0.091-2.513c0.077-0.879,0.242-1.753,0.495-2.624
			c0.253-0.87,0.586-1.709,0.998-2.514c0.412-0.805,0.891-1.529,1.434-2.171c0.544-0.643,1.141-1.182,1.792-1.618
			c0.65-0.436,1.341-0.718,2.073-0.846c0.244-0.042,0.442-0.027,0.597,0.044c0.154,0.072,0.287,0.161,0.398,0.267
			c0.111,0.107,0.219,0.211,0.324,0.313c0.105,0.103,0.226,0.169,0.362,0.2c0.136,0.032,0.271,0.042,0.407,0.036
			c0.135-0.008,0.272-0.022,0.41-0.046c0.116-0.02,0.235-0.044,0.356-0.071c0.121-0.026,0.239-0.05,0.356-0.07
			c0.159-0.028,0.31-0.037,0.453-0.03c0.143,0.008,0.277,0.056,0.402,0.143c0.124,0.089,0.232,0.222,0.324,0.403
			c0.091,0.182,0.166,0.437,0.223,0.766c0.048,0.276,0.091,0.653,0.129,1.126c0.04,0.476,0.071,1.007,0.097,1.594
			c0.025,0.586,0.048,1.209,0.069,1.868c0.021,0.658,0.038,1.304,0.05,1.938c0.032,1.504,0.049,3.116,0.053,4.835
			c0.286-0.236,0.591-0.52,0.917-0.85c0.324-0.331,0.676-0.758,1.055-1.284c0.378-0.526,0.79-1.175,1.234-1.949
			c0.445-0.771,0.93-1.724,1.455-2.855l1.376,3.405c-0.134,0.363-0.321,0.744-0.564,1.14c-0.242,0.398-0.516,0.802-0.822,1.211
			c-0.306,0.41-0.629,0.811-0.97,1.205c-0.341,0.394-0.678,0.767-1.01,1.12c-0.783,0.837-1.638,1.666-2.566,2.484
			c-0.004,1.173-0.051,2.32-0.139,3.447c-0.089,1.127-0.24,2.193-0.453,3.199s-0.493,1.944-0.839,2.814
			c-0.346,0.869-0.775,1.64-1.287,2.311c-0.512,0.67-1.117,1.227-1.815,1.672c-0.698,0.443-1.503,0.746-2.415,0.903
			c-0.36,0.063-0.756,0.095-1.188,0.093c-0.432,0-0.844-0.082-1.238-0.244c-0.394-0.16-0.743-0.429-1.048-0.802
			c-0.305-0.374-0.518-0.907-0.637-1.597c-0.083-0.479-0.055-1.04,0.085-1.684c0.139-0.643,0.364-1.332,0.672-2.07
			c0.309-0.739,0.692-1.516,1.151-2.336c0.458-0.817,0.968-1.645,1.528-2.475c0.56-0.832,1.153-1.658,1.781-2.48
			c0.627-0.82,1.269-1.61,1.923-2.37L73.76,81.544z M70.218,95.972c0.445-0.077,0.844-0.281,1.196-0.61
			c0.353-0.33,0.659-0.736,0.919-1.22s0.481-1.021,0.663-1.608c0.182-0.592,0.329-1.189,0.443-1.795
			c0.113-0.605,0.197-1.191,0.252-1.76c0.054-0.568,0.087-1.072,0.098-1.512c-0.366,0.349-0.729,0.75-1.093,1.209
			c-0.363,0.457-0.71,0.941-1.042,1.453c-0.332,0.513-0.64,1.033-0.924,1.564c-0.285,0.532-0.528,1.037-0.729,1.516
			s-0.349,0.918-0.443,1.316c-0.094,0.398-0.12,0.723-0.078,0.967C69.548,95.885,69.793,96.045,70.218,95.972z M69.642,78.666
			c0.046,0.266,0.109,0.52,0.189,0.763c0.081,0.244,0.186,0.456,0.315,0.635c0.13,0.18,0.285,0.317,0.465,0.412
			c0.18,0.094,0.392,0.12,0.636,0.077c0.392-0.068,0.717-0.3,0.977-0.695c0.259-0.396,0.464-0.853,0.614-1.372
			c0.15-0.518,0.253-1.046,0.307-1.581c0.055-0.535,0.073-0.978,0.057-1.323l0.158-4.856c-0.435,0.076-0.84,0.259-1.216,0.549
			c-0.375,0.29-0.714,0.652-1.015,1.088c-0.301,0.436-0.564,0.919-0.789,1.451c-0.224,0.532-0.402,1.08-0.533,1.645
			c-0.132,0.565-0.212,1.124-0.242,1.676C69.535,77.688,69.561,78.198,69.642,78.666z"/>
		<path fill="#FFFFFF" d="M87.287,80.91c-0.996,0.174-1.899,0.145-2.708-0.086c-0.81-0.231-1.518-0.609-2.122-1.132
			c-0.604-0.524-1.1-1.166-1.488-1.925c-0.388-0.759-0.658-1.58-0.812-2.461c-0.103-0.595-0.154-1.236-0.153-1.92
			c0.001-0.684,0.066-1.366,0.194-2.045c0.128-0.679,0.323-1.341,0.583-1.982c0.26-0.642,0.593-1.225,0.998-1.75
			c0.406-0.526,0.886-0.969,1.44-1.334c0.554-0.364,1.196-0.611,1.928-0.739c0.592-0.103,1.16-0.104,1.701-0.002
			c0.543,0.103,1.031,0.294,1.469,0.574c0.436,0.28,0.803,0.646,1.1,1.097s0.496,0.98,0.603,1.587
			c0.114,0.659,0.065,1.346-0.144,2.062c-0.209,0.714-0.549,1.415-1.02,2.098c-0.471,0.685-1.063,1.324-1.771,1.919
			c-0.711,0.595-1.506,1.099-2.382,1.515c0.209,0.259,0.406,0.471,0.593,0.636c0.187,0.165,0.369,0.287,0.545,0.364
			c0.179,0.078,0.357,0.124,0.541,0.137c0.183,0.011,0.373,0,0.574-0.035c0.637-0.111,1.285-0.355,1.945-0.733
			c0.66-0.379,1.291-0.816,1.893-1.316c0.603-0.498,1.16-1.025,1.676-1.581c0.517-0.555,0.943-1.07,1.287-1.547l2.423,1.778
			c-0.767,1.129-1.607,2.159-2.529,3.085c-0.399,0.398-0.836,0.797-1.308,1.198c-0.471,0.399-0.975,0.769-1.512,1.108
			c-0.535,0.34-1.102,0.636-1.695,0.886C88.539,80.618,87.923,80.799,87.287,80.91z M83.873,73.788
			c0.382-0.066,0.781-0.238,1.197-0.514c0.416-0.274,0.791-0.6,1.125-0.975c0.334-0.377,0.602-0.768,0.803-1.175
			c0.203-0.408,0.275-0.781,0.217-1.121c-0.084-0.479-0.239-0.857-0.467-1.134c-0.229-0.277-0.471-0.395-0.725-0.351
			c-0.455,0.08-0.83,0.233-1.125,0.459c-0.293,0.227-0.526,0.494-0.696,0.803c-0.17,0.309-0.292,0.646-0.364,1.016
			c-0.073,0.369-0.113,0.733-0.121,1.097c-0.008,0.363,0.006,0.71,0.042,1.043C83.794,73.269,83.833,73.553,83.873,73.788z"/>
		<path fill="#FFFFFF" d="M93.523,76.391c-0.123-0.701-0.221-1.519-0.295-2.454c-0.074-0.934-0.131-1.888-0.168-2.86
			c-0.039-0.974-0.055-1.916-0.049-2.825c0.008-0.909,0.029-1.69,0.07-2.343c0.03-0.51,0.186-0.958,0.463-1.347
			c0.274-0.387,0.701-0.63,1.272-0.73c0.572-0.1,1,0.006,1.283,0.318c0.282,0.312,0.476,0.76,0.575,1.344
			c0.029,0.16,0.05,0.378,0.064,0.655c0.016,0.276,0.027,0.581,0.035,0.913c0.01,0.333,0.018,0.676,0.023,1.03
			c0.008,0.354,0.012,0.682,0.016,0.982c0.002,0.3,0.008,0.563,0.014,0.786c0.006,0.224,0.014,0.373,0.027,0.447l0.318-0.056
			c0.043-0.128,0.111-0.334,0.203-0.619c0.094-0.285,0.201-0.611,0.322-0.983c0.12-0.371,0.252-0.764,0.393-1.177
			c0.143-0.413,0.271-0.808,0.393-1.185c0.121-0.376,0.232-0.711,0.334-1.002c0.104-0.292,0.18-0.508,0.232-0.648
			c0.238-0.633,0.559-1.093,0.955-1.382c0.397-0.289,0.861-0.478,1.393-0.57c0.529-0.093,0.988,0.057,1.379,0.448
			c0.391,0.392,0.654,0.981,0.789,1.767c0.021,0.118,0.031,0.318,0.031,0.602c0.002,0.285-0.004,0.625-0.012,1.021
			s-0.019,0.83-0.027,1.303c-0.012,0.473-0.012,0.955-0.004,1.446c0.01,0.49,0.029,0.974,0.064,1.45
			c0.032,0.476,0.084,0.91,0.151,1.303c0.112,0.659,0.289,1.187,0.526,1.583c0.238,0.396,0.531,0.564,0.882,0.503
			c0.159-0.028,0.334-0.107,0.522-0.239c0.191-0.131,0.394-0.295,0.604-0.49c0.213-0.196,0.426-0.416,0.639-0.662
			c0.216-0.246,0.427-0.496,0.632-0.751c0.477-0.597,0.967-1.263,1.473-1.997l0.891,3.523l-0.691,0.744
			c-0.377,0.406-0.762,0.812-1.156,1.22c-0.393,0.409-0.811,0.785-1.254,1.131c-0.44,0.345-0.914,0.645-1.416,0.902
			c-0.5,0.258-1.043,0.437-1.625,0.538c-0.584,0.102-1.146-0.234-1.69-1.011c-0.543-0.775-0.957-1.976-1.237-3.602
			c-0.111-0.637-0.188-1.333-0.23-2.085c-0.043-0.753-0.076-1.566-0.096-2.439l-0.254,0.044l-2.729,9.015
			c-0.138,0.474-0.322,0.812-0.562,1.018c-0.238,0.205-0.531,0.338-0.881,0.399c-0.436,0.076-0.801,0.044-1.098-0.097
			c-0.297-0.139-0.545-0.354-0.742-0.642s-0.355-0.627-0.471-1.018C93.691,77.223,93.595,76.816,93.523,76.391z"/>
	</g>
</g>
<g id="Duizend">
	<g>
		<path fill="#FFFFFF" d="M47.907,92.904c1.728-0.301,3.289-0.426,4.686-0.372c1.395,0.053,2.644,0.244,3.744,0.578
			c1.101,0.333,2.063,0.793,2.884,1.377c0.822,0.586,1.522,1.258,2.102,2.016c0.579,0.758,1.047,1.59,1.405,2.49
			c0.359,0.899,0.623,1.84,0.792,2.816c0.232,1.339,0.319,2.723,0.261,4.15c-0.058,1.428-0.257,2.832-0.595,4.217
			c-0.339,1.385-0.821,2.711-1.447,3.98c-0.626,1.27-1.397,2.416-2.311,3.44c-0.915,1.022-1.965,1.889-3.154,2.594
			c-1.188,0.705-2.519,1.187-3.992,1.442c-0.498,0.088-1.013,0.139-1.546,0.154c-0.532,0.018-1.053,0.004-1.562-0.039
			c-0.51-0.043-0.996-0.105-1.458-0.188c-0.463-0.084-0.873-0.183-1.231-0.296c-0.145-0.018-0.262-0.049-0.352-0.094
			c-0.09-0.045-0.163-0.104-0.219-0.176c-0.057-0.072-0.1-0.166-0.131-0.281c-0.03-0.114-0.062-0.264-0.093-0.443
			c-0.306-1.764-0.574-3.577-0.804-5.441c-0.231-1.865-0.361-3.703-0.391-5.517c-0.031-1.812,0.076-3.563,0.317-5.253
			c0.242-1.689,0.683-3.241,1.322-4.656c0.662-0.65,1.301-1.031,1.916-1.139c0.773-0.135,1.495,0.189,2.166,0.969
			c-0.374,0.744-0.655,1.549-0.843,2.414c-0.188,0.863-0.317,1.76-0.387,2.688c-0.068,0.926-0.097,1.863-0.085,2.813
			c0.012,0.951,0.031,1.879,0.057,2.783c0.021,1.004,0.042,1.861,0.062,2.576c0.02,0.713,0.045,1.336,0.078,1.867
			c0.032,0.529,0.068,0.994,0.11,1.392s0.095,0.782,0.159,1.153c0.068,0.395,0.139,0.722,0.211,0.981
			c0.072,0.263,0.173,0.463,0.302,0.604c0.128,0.142,0.302,0.229,0.521,0.263c0.218,0.032,0.503,0.021,0.853-0.041
			c1.06-0.185,2.03-0.569,2.912-1.157c0.881-0.586,1.663-1.303,2.346-2.148c0.683-0.846,1.264-1.795,1.744-2.842
			c0.479-1.047,0.853-2.131,1.124-3.25c0.27-1.119,0.433-2.24,0.49-3.361c0.057-1.121-0.001-2.182-0.174-3.18
			c-0.214-1.232-0.606-2.301-1.177-3.203c-0.572-0.902-1.279-1.627-2.122-2.176c-0.843-0.549-1.804-0.912-2.883-1.09
			c-1.08-0.18-2.229-0.162-3.448,0.051c-0.89,0.154-1.763,0.361-2.62,0.621c-0.856,0.258-1.638,0.564-2.347,0.918
			c-0.708,0.354-1.316,0.752-1.823,1.195c-0.507,0.443-0.863,0.932-1.066,1.458c-0.565,1.337-1.041,2.375-1.425,3.114
			c-0.385,0.74-0.747,1.142-1.086,1.199c-0.466,0.082-0.792-0.414-0.978-1.487c-0.181-1.042-0.208-2-0.082-2.876
			c0.126-0.875,0.376-1.678,0.747-2.404c0.371-0.729,0.848-1.374,1.432-1.941c0.584-0.566,1.246-1.063,1.985-1.494
			c0.738-0.432,1.542-0.793,2.408-1.086C46.075,93.293,46.975,93.066,47.907,92.904z"/>
		<path fill="#FFFFFF" d="M75.328,101.934c0.05,0.288,0.085,0.684,0.108,1.188c0.022,0.506,0.034,1.063,0.036,1.67
			c0.001,0.607-0.002,1.234-0.01,1.883c-0.009,0.646-0.016,1.25-0.022,1.81c-0.007,0.562-0.007,1.05,0,1.47
			c0.008,0.422,0.025,0.711,0.053,0.871c0.052,0.297,0.104,0.569,0.159,0.817c0.054,0.248,0.123,0.459,0.208,0.637
			c0.085,0.177,0.193,0.308,0.321,0.388c0.129,0.08,0.3,0.104,0.512,0.066c0.233-0.04,0.506-0.148,0.82-0.324
			c0.314-0.175,0.642-0.394,0.983-0.654c0.341-0.262,0.688-0.553,1.037-0.871c0.349-0.316,0.677-0.646,0.984-0.984
			s0.583-0.668,0.828-0.99c0.245-0.32,0.437-0.615,0.576-0.88c0.061,0.351,0.119,0.669,0.173,0.954
			c0.055,0.287,0.105,0.561,0.151,0.82c0.045,0.261,0.094,0.529,0.147,0.804c0.053,0.274,0.109,0.583,0.168,0.923
			c-0.193,0.275-0.439,0.574-0.737,0.9c-0.299,0.324-0.634,0.658-1.006,0.996c-0.373,0.34-0.773,0.672-1.203,0.998
			c-0.429,0.326-0.866,0.625-1.311,0.895c-0.444,0.27-0.891,0.499-1.337,0.691c-0.447,0.193-0.872,0.324-1.275,0.396
			c-0.402,0.069-0.761,0.051-1.075-0.061c-0.314-0.109-0.599-0.289-0.855-0.54c-0.256-0.251-0.491-0.563-0.703-0.937
			c-0.211-0.373-0.413-0.797-0.604-1.267c-0.294,0.565-0.618,1.097-0.969,1.589c-0.352,0.494-0.72,0.934-1.106,1.318
			c-0.386,0.384-0.79,0.705-1.21,0.957c-0.42,0.255-0.842,0.418-1.266,0.492c-0.35,0.062-0.688,0.061-1.016-0.004
			c-0.327-0.063-0.635-0.213-0.92-0.447c-0.287-0.233-0.538-0.565-0.754-0.993c-0.216-0.427-0.382-0.976-0.498-1.646
			c-0.142-0.818-0.225-1.877-0.248-3.176c-0.023-1.299-0.032-2.787-0.028-4.462c-0.007-0.163-0.004-0.386,0.007-0.666
			c0.011-0.28,0.039-0.591,0.085-0.927c0.045-0.336,0.114-0.684,0.205-1.037c0.092-0.355,0.214-0.684,0.37-0.984
			c0.155-0.301,0.354-0.56,0.594-0.775c0.241-0.219,0.53-0.361,0.867-0.432c0.565-0.076,0.98-0.076,1.246,0.006
			c0.265,0.078,0.413,0.209,0.445,0.391c0.002,0.578,0.007,1.225,0.016,1.936c0.009,0.709,0.016,1.426,0.021,2.146
			s0.012,1.425,0.021,2.107c0.009,0.682,0.016,1.291,0.022,1.826c0.005,0.535,0.012,0.967,0.02,1.293
			c0.007,0.327,0.012,0.496,0.014,0.508c0.033,0.19,0.084,0.371,0.151,0.539c0.067,0.17,0.151,0.316,0.249,0.44
			c0.098,0.126,0.212,0.222,0.344,0.285c0.131,0.065,0.277,0.084,0.436,0.056c0.233-0.04,0.461-0.145,0.684-0.309
			c0.222-0.164,0.422-0.379,0.6-0.646c0.178-0.266,0.323-0.58,0.434-0.945c0.111-0.363,0.173-0.766,0.185-1.207l0.169-8.371
			c0.009-0.264,0.186-0.516,0.533-0.756c0.345-0.242,0.757-0.404,1.234-0.487c0.541-0.095,0.987-0.073,1.337,0.063
			C75.075,101.42,75.276,101.637,75.328,101.934z"/>
		<path fill="#FFFFFF" d="M89.955,110.583c-0.32,0.42-0.729,0.875-1.229,1.373c-0.496,0.498-1.045,0.971-1.645,1.42
			c-0.601,0.449-1.222,0.846-1.867,1.188s-1.274,0.566-1.889,0.674c-0.551,0.096-1.028,0.102-1.431,0.012
			c-0.403-0.088-0.746-0.25-1.026-0.485c-0.281-0.235-0.507-0.544-0.676-0.925c-0.17-0.381-0.296-0.812-0.379-1.289
			c-0.116-0.67-0.174-1.461-0.175-2.375c0-0.914,0.029-1.865,0.087-2.856c0.057-0.989,0.128-1.979,0.213-2.968
			c0.086-0.989,0.154-1.898,0.207-2.729c0.026-0.289,0.134-0.553,0.322-0.789c0.188-0.233,0.413-0.438,0.673-0.607
			c0.26-0.17,0.535-0.313,0.827-0.424c0.292-0.11,0.56-0.188,0.804-0.23c0.445-0.076,0.761-0.048,0.949,0.09
			c0.188,0.137,0.305,0.344,0.353,0.619c0.041,0.234,0.046,0.582,0.017,1.04c-0.03,0.459-0.076,0.981-0.138,1.567
			s-0.127,1.216-0.196,1.89c-0.069,0.675-0.127,1.349-0.175,2.019c-0.047,0.67-0.071,1.32-0.071,1.949
			c0,0.631,0.042,1.188,0.127,1.678c0.083,0.479,0.202,0.851,0.357,1.113c0.155,0.262,0.396,0.364,0.724,0.307
			c0.383-0.065,0.784-0.271,1.204-0.618c0.42-0.349,0.836-0.751,1.248-1.211s0.811-0.933,1.194-1.416
			c0.388-0.481,0.73-0.897,1.029-1.246L89.955,110.583z M80.008,95.438c-0.042-0.245-0.038-0.529,0.015-0.857
			c0.053-0.326,0.175-0.646,0.367-0.959c0.191-0.312,0.47-0.597,0.835-0.852c0.365-0.255,0.844-0.436,1.438-0.538
			c0.371-0.063,0.728-0.083,1.071-0.056c0.343,0.027,0.652,0.107,0.926,0.24c0.275,0.135,0.507,0.33,0.701,0.594
			c0.191,0.261,0.322,0.589,0.391,0.98c0.063,0.362,0.064,0.723,0.008,1.084c-0.059,0.359-0.188,0.695-0.397,1.006
			c-0.209,0.31-0.492,0.58-0.85,0.813c-0.359,0.232-0.808,0.396-1.349,0.49c-0.933,0.162-1.659,0.062-2.182-0.303
			C80.459,96.717,80.135,96.17,80.008,95.438z"/>
		<path fill="#FFFFFF" d="M86.966,111.534c-0.041-0.234-0.031-0.437,0.027-0.604c0.057-0.169,0.145-0.335,0.258-0.496
			c0.112-0.161,0.248-0.331,0.401-0.507c0.156-0.174,0.312-0.385,0.466-0.631l3.789-7.524c-0.205-0.052-0.384-0.103-0.533-0.151
			c-0.15-0.05-0.287-0.096-0.408-0.135c-0.121-0.04-0.244-0.064-0.367-0.076c-0.121-0.012-0.252-0.006-0.389,0.018
			c-0.34,0.061-0.619,0.115-0.84,0.164c-0.222,0.05-0.402,0.119-0.545,0.209c-0.144,0.092-0.265,0.211-0.363,0.359
			c-0.1,0.149-0.205,0.354-0.313,0.613c-0.239,0.566-0.448,0.988-0.631,1.268s-0.36,0.434-0.543,0.465
			c-0.17,0.029-0.302-0.027-0.396-0.168c-0.097-0.144-0.166-0.342-0.211-0.598c-0.019-0.105-0.033-0.222-0.043-0.346
			c-0.011-0.123-0.017-0.251-0.019-0.383c0-0.951,0.096-1.74,0.295-2.366c0.196-0.626,0.451-1.127,0.763-1.505
			c0.313-0.377,0.655-0.655,1.034-0.838c0.377-0.18,0.736-0.299,1.076-0.358c0.254-0.045,0.519-0.028,0.795,0.05
			c0.274,0.077,0.551,0.17,0.824,0.275c0.274,0.104,0.553,0.195,0.834,0.273c0.28,0.076,0.562,0.096,0.838,0.059
			c0.213-0.025,0.407-0.055,0.584-0.085c0.174-0.031,0.336-0.06,0.483-0.085c0.424-0.074,0.763-0.141,1.015-0.201
			c0.25-0.061,0.44-0.111,0.569-0.156s0.22-0.078,0.269-0.104c0.051-0.025,0.092-0.041,0.123-0.047
			c0.371-0.064,0.662,0.019,0.871,0.25c0.209,0.232,0.354,0.572,0.43,1.019c0.052,0.286,0.072,0.601,0.065,0.94
			c-0.008,0.089-0.094,0.217-0.262,0.383s-0.465,0.347-0.889,0.54c-0.088,0.256-0.242,0.622-0.465,1.101
			c-0.225,0.477-0.484,1.01-0.779,1.598c-0.297,0.588-0.607,1.195-0.93,1.82c-0.324,0.625-0.631,1.213-0.924,1.762
			c-0.291,0.549-0.549,1.025-0.768,1.432c-0.22,0.404-0.365,0.679-0.438,0.822l-0.025,0.334c0.013-0.002,0.113,0.019,0.308,0.062
			c0.193,0.043,0.418,0.089,0.678,0.138c0.26,0.047,0.531,0.084,0.814,0.11c0.282,0.028,0.524,0.024,0.727-0.011
			c0.445-0.078,0.84-0.215,1.182-0.411c0.344-0.196,0.652-0.425,0.932-0.681c0.277-0.256,0.531-0.521,0.763-0.797
			c0.231-0.276,0.452-0.537,0.668-0.781c0.213-0.246,0.43-0.456,0.651-0.631c0.222-0.176,0.463-0.287,0.728-0.332
			c0.203-0.035,0.394-0.021,0.574,0.047c0.182,0.066,0.34,0.164,0.477,0.295c0.138,0.13,0.253,0.281,0.343,0.457
			c0.092,0.176,0.151,0.355,0.184,0.535c0.053,0.309-0.008,0.65-0.184,1.025c-0.175,0.375-0.433,0.756-0.769,1.143
			c-0.336,0.389-0.74,0.771-1.209,1.148c-0.472,0.377-0.972,0.725-1.5,1.041c-0.528,0.315-1.076,0.59-1.644,0.819
			c-0.565,0.229-1.108,0.392-1.627,0.481c-0.043,0.006-0.158,0.004-0.346-0.008c-0.188-0.01-0.439-0.039-0.754-0.09
			c-0.313-0.049-0.68-0.119-1.1-0.211c-0.42-0.09-0.885-0.217-1.393-0.382c-0.382,0.198-0.722,0.323-1.019,0.376
			c-0.318,0.055-0.604,0.047-0.854-0.023c-0.252-0.07-0.474-0.188-0.658-0.354c-0.188-0.165-0.34-0.362-0.455-0.594
			C87.097,112.063,87.015,111.809,86.966,111.534z"/>
		<path fill="#FFFFFF" d="M104.837,111.488c-0.996,0.175-1.898,0.146-2.709-0.085c-0.812-0.232-1.519-0.609-2.121-1.134
			c-0.604-0.524-1.1-1.165-1.488-1.925c-0.389-0.758-0.658-1.579-0.811-2.461c-0.104-0.596-0.156-1.234-0.154-1.92
			c0.002-0.685,0.066-1.366,0.195-2.045c0.127-0.681,0.321-1.34,0.582-1.982c0.26-0.643,0.592-1.225,0.998-1.75
			c0.405-0.523,0.885-0.971,1.438-1.335c0.553-0.363,1.194-0.61,1.928-0.738c0.593-0.104,1.16-0.104,1.703-0.001
			c0.541,0.104,1.031,0.293,1.468,0.573c0.436,0.28,0.803,0.646,1.1,1.099c0.297,0.451,0.496,0.979,0.602,1.586
			c0.115,0.659,0.066,1.346-0.143,2.062s-0.549,1.415-1.021,2.099c-0.471,0.686-1.063,1.324-1.771,1.92
			c-0.711,0.594-1.506,1.1-2.383,1.514c0.209,0.262,0.406,0.473,0.594,0.638c0.188,0.164,0.369,0.286,0.545,0.364
			c0.178,0.078,0.357,0.123,0.541,0.136c0.182,0.012,0.373,0,0.574-0.035c0.637-0.11,1.285-0.354,1.945-0.731
			c0.659-0.379,1.291-0.816,1.893-1.316c0.602-0.498,1.16-1.023,1.676-1.58s0.945-1.07,1.287-1.547l2.422,1.779
			c-0.766,1.129-1.607,2.158-2.527,3.082c-0.4,0.399-0.836,0.799-1.309,1.199c-0.471,0.397-0.975,0.768-1.512,1.107
			c-0.535,0.34-1.103,0.636-1.695,0.888C106.089,111.195,105.474,111.375,104.837,111.488z M101.423,104.366
			c0.383-0.066,0.781-0.238,1.197-0.514s0.791-0.602,1.125-0.977s0.602-0.767,0.805-1.174c0.201-0.406,0.273-0.781,0.215-1.121
			c-0.084-0.479-0.238-0.856-0.467-1.135c-0.229-0.277-0.471-0.396-0.726-0.352c-0.454,0.08-0.829,0.234-1.122,0.459
			c-0.296,0.229-0.527,0.494-0.697,0.804s-0.291,0.647-0.365,1.017c-0.072,0.369-0.113,0.733-0.121,1.098
			c-0.008,0.361,0.006,0.711,0.043,1.044C101.345,103.847,101.384,104.129,101.423,104.366z"/>
		<path fill="#FFFFFF" d="M111.074,106.969c-0.121-0.701-0.221-1.52-0.295-2.454s-0.131-1.888-0.168-2.86
			c-0.039-0.973-0.055-1.914-0.047-2.824c0.006-0.908,0.027-1.689,0.068-2.344c0.031-0.509,0.186-0.957,0.463-1.345
			c0.275-0.388,0.701-0.632,1.273-0.731c0.571-0.099,1,0.006,1.282,0.317c0.283,0.313,0.476,0.763,0.576,1.347
			c0.026,0.158,0.049,0.377,0.063,0.652c0.017,0.277,0.027,0.581,0.035,0.913c0.01,0.333,0.019,0.677,0.023,1.03
			c0.008,0.354,0.012,0.684,0.016,0.982c0.002,0.301,0.008,0.563,0.014,0.787c0.006,0.223,0.017,0.371,0.027,0.445l0.318-0.055
			c0.043-0.129,0.111-0.336,0.203-0.619c0.094-0.285,0.201-0.611,0.322-0.984c0.121-0.371,0.252-0.764,0.393-1.176
			c0.143-0.414,0.273-0.811,0.393-1.188c0.121-0.376,0.232-0.71,0.334-1.002c0.104-0.291,0.18-0.508,0.232-0.646
			c0.238-0.635,0.559-1.094,0.955-1.383c0.398-0.289,0.863-0.479,1.393-0.57s0.99,0.059,1.379,0.449
			c0.392,0.392,0.654,0.98,0.791,1.768c0.021,0.117,0.029,0.316,0.029,0.604c0,0.283-0.004,0.623-0.01,1.02
			c-0.01,0.396-0.02,0.829-0.029,1.302c-0.009,0.474-0.012,0.955-0.002,1.446c0.008,0.49,0.029,0.975,0.063,1.449
			c0.033,0.477,0.084,0.912,0.152,1.306c0.113,0.658,0.289,1.187,0.527,1.583c0.238,0.395,0.531,0.563,0.883,0.502
			c0.158-0.027,0.332-0.105,0.523-0.238c0.188-0.132,0.391-0.295,0.602-0.49c0.213-0.196,0.426-0.416,0.639-0.662
			c0.215-0.246,0.426-0.496,0.633-0.752c0.476-0.596,0.966-1.262,1.472-1.996l0.892,3.523l-0.691,0.744
			c-0.377,0.405-0.762,0.813-1.156,1.219c-0.393,0.408-0.811,0.785-1.254,1.131c-0.441,0.346-0.914,0.646-1.416,0.903
			c-0.5,0.259-1.043,0.437-1.625,0.538c-0.584,0.102-1.146-0.234-1.691-1.011c-0.543-0.774-0.957-1.976-1.238-3.603
			c-0.108-0.638-0.188-1.332-0.229-2.086c-0.043-0.754-0.073-1.566-0.096-2.439l-0.255,0.044l-2.729,9.017
			c-0.137,0.473-0.322,0.813-0.561,1.018c-0.236,0.205-0.531,0.339-0.881,0.398c-0.435,0.076-0.801,0.045-1.099-0.095
			c-0.297-0.142-0.545-0.354-0.741-0.644c-0.197-0.289-0.354-0.629-0.472-1.019C111.242,107.801,111.148,107.395,111.074,106.969z"
			/>
		<path fill="#FFFFFF" d="M143.455,101.538c-0.649,0.717-1.303,1.366-1.955,1.95c-0.272,0.244-0.563,0.49-0.871,0.735
			c-0.307,0.244-0.612,0.468-0.916,0.668c-0.305,0.201-0.604,0.374-0.899,0.52c-0.299,0.146-0.58,0.239-0.844,0.287
			c-0.148,0.024-0.375,0.03-0.677,0.018c-0.303-0.012-0.645-0.086-1.021-0.223c-0.379-0.138-0.772-0.361-1.183-0.674
			c-0.409-0.313-0.795-0.754-1.155-1.326c-0.326,0.451-0.679,0.889-1.06,1.311c-0.379,0.423-0.783,0.802-1.211,1.139
			c-0.428,0.338-0.869,0.626-1.324,0.864c-0.455,0.237-0.928,0.397-1.414,0.483c-0.688,0.119-1.313,0.076-1.866-0.135
			c-0.554-0.21-1.041-0.531-1.461-0.969s-0.769-0.953-1.039-1.553c-0.272-0.596-0.468-1.23-0.584-1.9
			c-0.117-0.68-0.149-1.384-0.097-2.109c0.056-0.727,0.191-1.445,0.412-2.158c0.222-0.711,0.521-1.397,0.896-2.062
			c0.377-0.661,0.828-1.271,1.354-1.827c0.526-0.558,1.117-1.047,1.777-1.468c0.658-0.422,1.383-0.739,2.176-0.954
			c-0.205-1.365-0.313-2.732-0.334-4.097c-0.018-1.365,0.045-2.681,0.187-3.94c0.141-1.262,0.358-2.444,0.653-3.547
			s0.658-2.074,1.092-2.916c0.435-0.842,0.931-1.529,1.494-2.059c0.563-0.531,1.185-0.855,1.861-0.974
			c0.498-0.087,0.945-0.03,1.34,0.169c0.396,0.2,0.738,0.496,1.031,0.888c0.291,0.392,0.533,0.865,0.729,1.416
			c0.193,0.552,0.345,1.132,0.447,1.737c0.064,0.372,0.115,0.757,0.152,1.155c0.121,1.523,0.113,2.982-0.027,4.381
			c-0.139,1.398-0.35,2.773-0.627,4.125c-0.279,1.352-0.604,2.7-0.971,4.045c-0.367,1.346-0.711,2.734-1.029,4.17
			c-0.027,0.158-0.049,0.349-0.063,0.569c-0.019,0.222-0.027,0.462-0.031,0.722c-0.004,0.256,0,0.519,0.015,0.785
			c0.014,0.266,0.041,0.521,0.084,0.766c0.053,0.308,0.121,0.597,0.207,0.865c0.084,0.271,0.188,0.508,0.311,0.711
			s0.268,0.354,0.432,0.459c0.166,0.102,0.354,0.135,0.566,0.098c0.201-0.035,0.414-0.112,0.639-0.234
			c0.225-0.121,0.457-0.273,0.699-0.459c0.24-0.184,0.48-0.388,0.721-0.609c0.241-0.221,0.473-0.445,0.695-0.672
			c0.508-0.525,1.035-1.115,1.576-1.77L143.455,101.538z M130.968,94.517c-0.641,0.463-1.186,1.021-1.633,1.674
			c-0.449,0.651-0.801,1.336-1.056,2.047c-0.254,0.712-0.418,1.414-0.493,2.106c-0.078,0.691-0.07,1.304,0.022,1.835
			c0.035,0.213,0.099,0.422,0.183,0.625c0.084,0.204,0.204,0.381,0.36,0.528c0.155,0.147,0.36,0.256,0.612,0.319
			c0.25,0.065,0.563,0.067,0.935,0.002c0.19-0.032,0.369-0.114,0.539-0.243c0.17-0.127,0.324-0.283,0.467-0.467
			c0.146-0.184,0.275-0.387,0.396-0.609c0.119-0.224,0.225-0.453,0.314-0.688c0.213-0.54,0.387-1.143,0.522-1.8
			c-0.058-0.144-0.125-0.375-0.201-0.695c-0.078-0.319-0.156-0.679-0.235-1.075c-0.08-0.396-0.162-0.808-0.246-1.229
			c-0.084-0.423-0.158-0.81-0.226-1.16c-0.065-0.349-0.125-0.636-0.174-0.854C131.007,94.61,130.978,94.506,130.968,94.517z
			 M136.439,81.659c-0.066-0.755-0.137-1.351-0.213-1.786c-0.1-0.574-0.219-0.964-0.357-1.17c-0.141-0.205-0.305-0.291-0.496-0.258
			c-0.34,0.059-0.608,0.328-0.811,0.806c-0.199,0.479-0.35,1.071-0.443,1.777c-0.098,0.707-0.154,1.479-0.174,2.313
			c-0.02,0.835-0.016,1.64,0.008,2.414c0.025,0.771,0.06,1.468,0.103,2.084c0.041,0.617,0.071,1.055,0.096,1.313
			c0.048,0.528,0.101,1.036,0.158,1.525c0.058,0.486,0.114,0.933,0.174,1.332c0.058,0.4,0.113,0.748,0.164,1.047
			c0.054,0.297,0.092,0.525,0.119,0.686l0.026,0.159c0.365-1.487,0.685-2.96,0.953-4.42c0.111-0.62,0.221-1.272,0.326-1.953
			c0.105-0.68,0.191-1.36,0.26-2.041c0.068-0.679,0.113-1.344,0.137-1.994C136.494,82.843,136.482,82.231,136.439,81.659z"/>
	</g>
</g>
<g id="en">
	<g>
		<path fill="#FFFFFF" d="M65.176,140.559c-0.996,0.174-1.899,0.146-2.709-0.086c-0.81-0.23-1.517-0.607-2.121-1.133
			s-1.101-1.166-1.489-1.924c-0.388-0.76-0.658-1.58-0.811-2.463c-0.103-0.595-0.155-1.234-0.153-1.92
			c0.001-0.685,0.066-1.365,0.194-2.045c0.127-0.68,0.322-1.34,0.582-1.98c0.26-0.643,0.593-1.227,0.998-1.752
			c0.406-0.524,0.886-0.971,1.439-1.334c0.553-0.364,1.196-0.611,1.928-0.739c0.593-0.104,1.161-0.103,1.703-0.001
			c0.542,0.104,1.031,0.294,1.467,0.574c0.437,0.279,0.803,0.646,1.1,1.098c0.296,0.451,0.498,0.98,0.603,1.587
			c0.114,0.658,0.066,1.345-0.143,2.062c-0.209,0.715-0.549,1.414-1.02,2.1c-0.472,0.686-1.063,1.322-1.772,1.918
			c-0.71,0.596-1.504,1.1-2.383,1.516c0.209,0.26,0.407,0.471,0.594,0.637c0.187,0.164,0.369,0.285,0.546,0.363
			c0.177,0.078,0.357,0.125,0.54,0.135c0.182,0.014,0.374,0.002,0.575-0.032c0.637-0.111,1.284-0.356,1.945-0.733
			c0.66-0.379,1.292-0.816,1.893-1.316c0.601-0.498,1.16-1.023,1.675-1.58c0.515-0.555,0.945-1.069,1.288-1.547l2.422,1.779
			c-0.765,1.129-1.608,2.157-2.528,3.084c-0.401,0.398-0.836,0.797-1.308,1.196c-0.471,0.399-0.975,0.771-1.512,1.108
			c-0.536,0.34-1.101,0.636-1.696,0.888C66.428,140.269,65.812,140.45,65.176,140.559z M61.763,133.436
			c0.382-0.066,0.781-0.236,1.197-0.514c0.417-0.274,0.791-0.6,1.125-0.975c0.333-0.377,0.601-0.768,0.803-1.176
			c0.203-0.406,0.275-0.781,0.216-1.121c-0.083-0.479-0.239-0.855-0.467-1.134c-0.228-0.276-0.469-0.396-0.724-0.351
			c-0.456,0.078-0.831,0.232-1.125,0.459c-0.294,0.226-0.526,0.494-0.696,0.803c-0.171,0.309-0.292,0.646-0.364,1.017
			c-0.073,0.368-0.114,0.733-0.122,1.097c-0.008,0.361,0.006,0.711,0.042,1.043C61.684,132.918,61.722,133.204,61.763,133.436z"/>
		<path fill="#FFFFFF" d="M71.412,136.042c-0.121-0.703-0.22-1.52-0.294-2.455c-0.075-0.934-0.13-1.887-0.168-2.858
			c-0.038-0.976-0.053-1.916-0.047-2.825c0.006-0.908,0.029-1.689,0.069-2.344c0.032-0.51,0.187-0.957,0.463-1.346
			c0.276-0.387,0.701-0.631,1.274-0.73c0.571-0.1,1,0.006,1.283,0.318c0.284,0.313,0.476,0.76,0.577,1.344
			c0.028,0.16,0.049,0.377,0.064,0.654c0.016,0.275,0.027,0.58,0.036,0.914c0.008,0.332,0.016,0.676,0.023,1.029
			c0.007,0.354,0.012,0.682,0.015,0.982c0.003,0.3,0.008,0.563,0.014,0.785c0.005,0.225,0.015,0.371,0.028,0.445l0.317-0.055
			c0.044-0.128,0.112-0.334,0.205-0.617c0.093-0.285,0.2-0.611,0.321-0.984c0.121-0.37,0.253-0.764,0.394-1.178
			c0.142-0.412,0.272-0.809,0.393-1.186c0.121-0.376,0.232-0.71,0.334-1.002c0.103-0.291,0.18-0.508,0.231-0.646
			c0.239-0.635,0.558-1.095,0.956-1.383c0.398-0.289,0.862-0.479,1.392-0.57s0.99,0.058,1.38,0.447
			c0.39,0.393,0.653,0.981,0.79,1.768c0.02,0.117,0.03,0.318,0.031,0.604c0,0.284-0.004,0.624-0.011,1.021
			c-0.008,0.396-0.019,0.83-0.029,1.303c-0.011,0.473-0.012,0.954-0.003,1.445c0.009,0.49,0.03,0.975,0.063,1.449
			c0.033,0.478,0.084,0.91,0.152,1.305c0.114,0.658,0.29,1.188,0.528,1.582c0.238,0.396,0.531,0.564,0.882,0.502
			c0.158-0.026,0.333-0.105,0.523-0.237s0.391-0.295,0.603-0.491c0.211-0.193,0.424-0.416,0.639-0.66
			c0.213-0.246,0.424-0.496,0.631-0.75c0.478-0.599,0.967-1.265,1.473-1.998l0.89,3.522l-0.689,0.744
			c-0.377,0.405-0.764,0.813-1.156,1.22c-0.393,0.409-0.813,0.784-1.254,1.131c-0.443,0.344-0.915,0.646-1.416,0.903
			c-0.502,0.258-1.044,0.437-1.627,0.538s-1.146-0.236-1.69-1.012s-0.957-1.977-1.239-3.603c-0.111-0.637-0.188-1.333-0.23-2.087
			c-0.044-0.752-0.075-1.564-0.096-2.438l-0.254,0.045l-2.729,9.015c-0.137,0.474-0.323,0.813-0.561,1.019
			c-0.238,0.205-0.532,0.338-0.881,0.399c-0.435,0.075-0.8,0.043-1.097-0.097c-0.297-0.141-0.545-0.354-0.742-0.643
			c-0.197-0.289-0.354-0.628-0.472-1.019C71.581,136.874,71.486,136.465,71.412,136.042z"/>
	</g>
</g>
</svg>
