<?xml version="1.0" standalone="no"?><!DOCTYPE svg PUBLIC "-//W3C//DTD SVG 1.1//EN" "http://www.w3.org/Graphics/SVG/1.1/DTD/svg11.dtd"><svg width="100%" height="100%" viewBox="0 0 160 157" version="1.1" xmlns="http://www.w3.org/2000/svg" xmlns:xlink="http://www.w3.org/1999/xlink" xml:space="preserve" style="fill-rule:evenodd;clip-rule:evenodd;stroke-linejoin:round;stroke-miterlimit:1.41421;"><path id="_x31_" d="M115.697,30.439c-1.478,1.577 -3.081,3.176 -4.805,4.801c-1.724,1.625 -3.401,3.103 -5.028,4.433c-1.625,1.33 -3.131,2.415 -4.511,3.251c-1.38,0.839 -2.416,1.256 -3.104,1.256c-9.264,0 -16.361,-0.813 -21.288,-2.439c-4.929,-1.625 -7.392,-3.273 -7.392,-4.949c0,-1.083 1.035,-1.969 3.104,-2.66c2.07,-0.688 5.272,-1.033 9.608,-1.033c1.084,0 2.711,-0.814 4.88,-2.439c2.167,-1.625 4.752,-3.668 7.76,-6.132c3.006,-2.461 6.331,-5.12 9.979,-7.979c3.645,-2.856 7.391,-5.516 11.237,-7.978c3.844,-2.462 7.735,-4.507 11.678,-6.132c3.942,-1.626 7.786,-2.439 11.53,-2.439c5.323,0 8.872,0.369 10.646,1.108c1.773,0.739 2.661,1.799 2.661,3.176c0,1.477 -0.2,3.301 -0.591,5.467c-0.396,2.168 -0.59,4.728 -0.59,7.682c-1.086,7.092 -2.071,13.496 -2.959,19.208c-0.885,5.715 -1.899,12.19 -3.031,19.43c-1.133,7.24 -2.242,14.578 -3.325,22.014c-1.084,7.439 -2.12,14.679 -3.104,21.72c-0.985,7.043 -1.824,13.175 -2.513,18.395c-0.298,1.184 -0.667,2.955 -1.11,5.319c-0.442,2.364 -1.06,4.949 -1.849,7.754c-0.789,2.807 -1.751,5.667 -2.883,8.571c-1.133,2.908 -2.489,5.567 -4.065,7.979c-1.579,2.416 -3.424,4.382 -5.544,5.909c-2.12,1.528 -4.508,2.292 -7.169,2.292c-3.252,0 -6.31,-0.195 -9.167,-0.591c-2.86,-0.39 -5.323,-1.009 -7.391,-1.846c-2.07,-0.836 -3.697,-1.919 -4.88,-3.251c-1.182,-1.332 -1.773,-2.929 -1.773,-4.804c0,-0.787 0.049,-1.575 0.148,-2.363c0.096,-0.786 0.492,-1.773 1.183,-2.956c1.576,-5.71 3.128,-11.644 4.656,-17.804c1.528,-6.154 3.005,-12.337 4.434,-18.542c1.43,-6.206 2.784,-12.338 4.068,-18.395c1.279,-6.059 2.462,-11.795 3.547,-17.213c2.568,-12.703 4.883,-25.311 6.953,-37.82Z" style="fill:#fff;fill-opacity:0.502;fill-rule:nonzero;"/><g id="Negen"><path d="M12.501,67.061c0.474,-3.058 0.998,-5.746 1.574,-8.057c0.574,-2.311 1.186,-4.307 1.833,-5.991c0.647,-1.682 1.313,-3.082 2,-4.201c0.687,-1.12 1.389,-2.027 2.105,-2.721c0.718,-0.695 1.435,-1.214 2.155,-1.559c0.719,-0.343 1.432,-0.577 2.139,-0.7c0.82,-0.143 1.553,-0.065 2.201,0.229c0.648,0.295 1.215,0.723 1.696,1.279c0.483,0.56 0.873,1.199 1.173,1.92c0.3,0.723 0.512,1.444 0.638,2.167c0.146,0.85 0.244,1.808 0.29,2.872c0.046,1.065 0.072,2.194 0.075,3.392c0.003,1.197 -0.007,2.436 -0.032,3.717c-0.027,1.281 -0.031,2.553 -0.017,3.812c0.014,1.26 0.057,2.495 0.129,3.7c0.071,1.207 0.196,2.333 0.379,3.383c0.058,0.34 0.134,0.717 0.228,1.13c0.093,0.415 0.213,0.832 0.358,1.251c0.146,0.42 0.322,0.823 0.527,1.212c0.205,0.387 0.453,0.723 0.744,1.008c0.289,0.285 0.623,0.495 1.004,0.636c0.38,0.139 0.811,0.167 1.292,0.084c0.679,-0.12 1.365,-0.415 2.064,-0.887c0.696,-0.472 1.364,-1.029 2.001,-1.673c0.639,-0.644 1.235,-1.323 1.787,-2.041c0.553,-0.716 1.035,-1.376 1.448,-1.98c0.411,-0.604 0.732,-1.106 0.961,-1.504c0.231,-0.398 0.344,-0.603 0.342,-0.618l2.072,4.39c-0.347,0.688 -0.758,1.385 -1.234,2.088c-0.474,0.702 -0.997,1.382 -1.568,2.033c-0.57,0.656 -1.186,1.281 -1.849,1.867c-0.663,0.588 -1.352,1.122 -2.071,1.598c-0.718,0.474 -1.453,0.878 -2.204,1.206c-0.75,0.328 -1.508,0.557 -2.27,0.69c-0.991,0.174 -1.89,0.154 -2.696,-0.054c-0.808,-0.208 -1.535,-0.558 -2.179,-1.043c-0.645,-0.485 -1.219,-1.084 -1.72,-1.792c-0.501,-0.708 -0.936,-1.475 -1.305,-2.304c-0.37,-0.825 -0.678,-1.677 -0.923,-2.555c-0.248,-0.876 -0.443,-1.732 -0.587,-2.568c-0.192,-1.104 -0.292,-2.204 -0.298,-3.297c-0.008,-1.095 0.026,-2.176 0.102,-3.248c0.076,-1.072 0.184,-2.124 0.327,-3.155c0.141,-1.032 0.259,-2.033 0.353,-3.006c0.094,-0.972 0.152,-1.911 0.179,-2.812c0.025,-0.902 -0.032,-1.756 -0.172,-2.564c-0.037,-0.212 -0.1,-0.495 -0.191,-0.843c-0.089,-0.349 -0.209,-0.679 -0.357,-0.988c-0.148,-0.311 -0.343,-0.568 -0.581,-0.776c-0.24,-0.205 -0.53,-0.279 -0.868,-0.22c-0.566,0.099 -1.103,0.467 -1.611,1.103c-0.508,0.636 -0.996,1.477 -1.463,2.521c-0.468,1.045 -0.908,2.264 -1.321,3.656c-0.415,1.393 -0.807,2.887 -1.18,4.476c-0.371,1.591 -0.724,3.257 -1.055,5c-0.332,1.744 -0.638,3.491 -0.925,5.241c-0.287,1.751 -0.559,3.472 -0.819,5.167c-0.26,1.695 -0.5,3.293 -0.721,4.791c-0.263,0.833 -0.624,1.456 -1.085,1.862c-0.46,0.411 -1.008,0.67 -1.644,0.779c-0.368,0.065 -0.739,0.049 -1.111,-0.047c-0.373,-0.094 -0.721,-0.27 -1.043,-0.529c-0.321,-0.256 -0.598,-0.595 -0.83,-1.016c-0.234,-0.417 -0.399,-0.911 -0.498,-1.477c-0.104,-0.596 -0.168,-1.139 -0.194,-1.631c-0.027,-0.491 -0.028,-0.996 0,-1.511c0.072,-1.677 0.141,-3.228 0.208,-4.657c0.065,-1.427 0.116,-2.785 0.154,-4.077c0.039,-1.291 0.059,-2.54 0.06,-3.744c0.002,-1.206 -0.013,-2.415 -0.049,-3.627c-0.035,-1.212 -0.097,-2.452 -0.187,-3.723c-0.088,-1.269 -0.206,-2.62 -0.353,-4.054c-0.023,-0.13 -0.051,-0.292 -0.084,-0.49c-0.033,-0.197 -0.088,-0.381 -0.161,-0.552c-0.074,-0.169 -0.175,-0.308 -0.303,-0.418c-0.128,-0.108 -0.299,-0.146 -0.511,-0.108c-0.282,0.049 -0.602,0.244 -0.957,0.584c-0.356,0.34 -0.708,0.782 -1.057,1.333c-0.35,0.549 -0.691,1.181 -1.026,1.897c-0.334,0.715 -0.621,1.474 -0.861,2.274c-0.048,0.228 -0.155,0.404 -0.323,0.528c-0.168,0.124 -0.365,0.205 -0.59,0.245c-0.184,0.032 -0.386,0.005 -0.604,-0.081c-0.219,-0.084 -0.428,-0.199 -0.627,-0.339c-0.199,-0.141 -0.372,-0.297 -0.519,-0.468c-0.146,-0.172 -0.232,-0.335 -0.26,-0.492c-0.014,-0.084 0.002,-0.161 0.048,-0.227c0.19,-1.684 0.487,-3.133 0.894,-4.349c0.409,-1.219 0.889,-2.227 1.441,-3.032c0.552,-0.805 1.148,-1.421 1.787,-1.856c0.638,-0.432 1.289,-0.707 1.953,-0.821c1.004,-0.175 1.875,-0.17 2.612,0.014c0.739,0.186 1.367,0.514 1.885,0.986c0.519,0.472 0.936,1.073 1.252,1.806c0.316,0.734 0.556,1.568 0.719,2.502c0.163,0.936 0.259,1.956 0.289,3.06c0.031,1.104 0.014,2.256 -0.056,3.458c-0.068,1.2 -0.166,2.435 -0.298,3.696c-0.131,1.264 -0.27,2.522 -0.416,3.774l0.386,0.066Z" style="fill:#fff;fill-rule:nonzero;"/><path d="M49.445,77.284c-1.328,0.232 -2.533,0.195 -3.612,-0.115c-1.08,-0.306 -2.022,-0.81 -2.828,-1.51c-0.805,-0.698 -1.466,-1.555 -1.985,-2.566c-0.517,-1.013 -0.877,-2.106 -1.081,-3.281c-0.139,-0.793 -0.207,-1.648 -0.204,-2.56c0.001,-0.911 0.088,-1.82 0.258,-2.727c0.171,-0.905 0.43,-1.786 0.776,-2.641c0.347,-0.856 0.791,-1.635 1.331,-2.335c0.541,-0.7 1.181,-1.292 1.92,-1.778c0.737,-0.486 1.595,-0.815 2.569,-0.986c0.791,-0.138 1.548,-0.138 2.271,-0.002c0.723,0.137 1.375,0.392 1.956,0.765c0.581,0.373 1.071,0.861 1.465,1.463c0.396,0.601 0.664,1.306 0.804,2.116c0.152,0.878 0.09,1.794 -0.189,2.749c-0.279,0.952 -0.732,1.887 -1.36,2.797c-0.628,0.914 -1.416,1.766 -2.363,2.558c-0.948,0.793 -2.006,1.466 -3.177,2.02c0.279,0.345 0.543,0.628 0.792,0.848c0.249,0.22 0.492,0.382 0.728,0.485c0.236,0.104 0.476,0.165 0.72,0.181c0.243,0.016 0.499,0 0.767,-0.046c0.848,-0.148 1.712,-0.474 2.593,-0.978c0.88,-0.505 1.723,-1.089 2.524,-1.754c0.801,-0.666 1.547,-1.367 2.233,-2.108c0.688,-0.74 1.26,-1.427 1.718,-2.063l3.228,2.371c-1.02,1.505 -2.144,2.878 -3.371,4.113c-0.535,0.531 -1.115,1.063 -1.744,1.596c-0.628,0.532 -1.3,1.025 -2.015,1.477c-0.716,0.456 -1.469,0.85 -2.262,1.183c-0.794,0.337 -1.614,0.581 -2.462,0.728ZM44.895,67.788c0.508,-0.088 1.04,-0.317 1.596,-0.685c0.554,-0.367 1.054,-0.8 1.5,-1.3c0.444,-0.503 0.801,-1.024 1.072,-1.567c0.269,-0.544 0.365,-1.041 0.286,-1.495c-0.11,-0.638 -0.318,-1.142 -0.622,-1.512c-0.304,-0.369 -0.626,-0.526 -0.966,-0.468c-0.608,0.107 -1.108,0.311 -1.498,0.611c-0.392,0.304 -0.703,0.66 -0.928,1.072c-0.228,0.411 -0.39,0.863 -0.487,1.355c-0.097,0.492 -0.151,0.977 -0.163,1.462c-0.01,0.484 0.008,0.947 0.056,1.391c0.048,0.445 0.099,0.824 0.154,1.136Z" style="fill:#fff;fill-rule:nonzero;"/><path d="M66.896,71.944c-0.645,0.813 -1.344,1.501 -2.099,2.061c-0.754,0.562 -1.52,0.911 -2.297,1.048c-0.677,0.118 -1.363,0.094 -2.053,-0.07c-0.692,-0.163 -1.33,-0.462 -1.915,-0.892c-0.584,-0.431 -1.088,-0.992 -1.515,-1.684c-0.425,-0.694 -0.72,-1.506 -0.882,-2.442c-0.184,-1.062 -0.224,-2.181 -0.122,-3.35c0.103,-1.172 0.323,-2.338 0.66,-3.499c0.338,-1.16 0.782,-2.279 1.331,-3.352c0.549,-1.073 1.188,-2.039 1.912,-2.895c0.725,-0.857 1.521,-1.576 2.389,-2.157c0.867,-0.581 1.788,-0.957 2.764,-1.128c0.326,-0.056 0.59,-0.036 0.796,0.059c0.206,0.096 0.383,0.214 0.531,0.356c0.148,0.142 0.292,0.281 0.432,0.417c0.14,0.137 0.301,0.225 0.483,0.267c0.181,0.042 0.361,0.056 0.542,0.048c0.18,-0.011 0.363,-0.03 0.547,-0.062c0.155,-0.026 0.313,-0.058 0.475,-0.094c0.161,-0.035 0.318,-0.067 0.474,-0.094c0.212,-0.037 0.414,-0.049 0.604,-0.04c0.191,0.011 0.37,0.075 0.536,0.191c0.166,0.119 0.31,0.296 0.432,0.537c0.122,0.243 0.222,0.583 0.298,1.022c0.064,0.368 0.121,0.87 0.172,1.501c0.053,0.635 0.094,1.343 0.129,2.125c0.033,0.782 0.064,1.612 0.092,2.491c0.028,0.877 0.051,1.739 0.067,2.584c0.042,2.005 0.065,4.155 0.07,6.447c0.382,-0.315 0.788,-0.694 1.223,-1.134c0.432,-0.441 0.901,-1.01 1.407,-1.712c0.504,-0.701 1.053,-1.566 1.645,-2.598c0.593,-1.028 1.24,-2.299 1.94,-3.807l1.835,4.54c-0.179,0.484 -0.428,0.992 -0.752,1.52c-0.323,0.531 -0.688,1.069 -1.096,1.615c-0.408,0.546 -0.839,1.081 -1.294,1.606c-0.454,0.526 -0.904,1.023 -1.346,1.494c-1.044,1.116 -2.184,2.221 -3.422,3.312c-0.005,1.564 -0.068,3.093 -0.185,4.596c-0.119,1.502 -0.32,2.924 -0.604,4.265c-0.284,1.341 -0.657,2.592 -1.119,3.752c-0.461,1.159 -1.033,2.187 -1.716,3.081c-0.682,0.894 -1.489,1.636 -2.42,2.23c-0.93,0.59 -2.004,0.994 -3.22,1.204c-0.48,0.084 -1.008,0.126 -1.584,0.124c-0.576,0 -1.125,-0.11 -1.65,-0.326c-0.526,-0.213 -0.991,-0.572 -1.398,-1.069c-0.406,-0.499 -0.69,-1.209 -0.849,-2.129c-0.111,-0.639 -0.073,-1.387 0.113,-2.246c0.186,-0.857 0.486,-1.776 0.896,-2.76c0.412,-0.985 0.923,-2.021 1.535,-3.114c0.611,-1.09 1.291,-2.194 2.037,-3.3c0.747,-1.11 1.538,-2.211 2.375,-3.307c0.836,-1.093 1.692,-2.147 2.564,-3.16l0.232,-2.072ZM62.173,91.181c0.594,-0.102 1.126,-0.374 1.595,-0.813c0.471,-0.44 0.879,-0.981 1.225,-1.627c0.347,-0.645 0.642,-1.361 0.884,-2.144c0.243,-0.789 0.439,-1.585 0.591,-2.393c0.151,-0.807 0.263,-1.588 0.336,-2.347c0.072,-0.757 0.116,-1.429 0.131,-2.016c-0.488,0.466 -0.972,1 -1.458,1.612c-0.484,0.61 -0.946,1.255 -1.389,1.938c-0.443,0.684 -0.853,1.377 -1.232,2.085c-0.38,0.709 -0.704,1.383 -0.972,2.021c-0.268,0.639 -0.465,1.224 -0.591,1.755c-0.125,0.531 -0.16,0.964 -0.104,1.289c0.091,0.524 0.418,0.738 0.984,0.64ZM61.405,68.107c0.062,0.354 0.146,0.693 0.252,1.017c0.108,0.325 0.248,0.608 0.42,0.847c0.174,0.24 0.38,0.422 0.62,0.549c0.24,0.125 0.523,0.16 0.848,0.103c0.523,-0.091 0.956,-0.4 1.303,-0.927c0.345,-0.528 0.619,-1.137 0.819,-1.829c0.2,-0.691 0.337,-1.395 0.409,-2.108c0.073,-0.714 0.097,-1.304 0.076,-1.764l0.211,-6.475c-0.58,0.101 -1.12,0.345 -1.622,0.732c-0.5,0.387 -0.952,0.869 -1.353,1.451c-0.401,0.581 -0.752,1.225 -1.052,1.934c-0.299,0.71 -0.536,1.44 -0.711,2.194c-0.176,0.753 -0.282,1.498 -0.322,2.234c-0.04,0.738 -0.006,1.418 0.102,2.042Z" style="fill:#fff;fill-rule:nonzero;"/><path d="M84.932,71.099c-1.328,0.232 -2.532,0.193 -3.611,-0.115c-1.08,-0.308 -2.024,-0.812 -2.829,-1.509c-0.805,-0.699 -1.467,-1.555 -1.984,-2.567c-0.517,-1.012 -0.877,-2.107 -1.083,-3.281c-0.137,-0.794 -0.205,-1.648 -0.204,-2.56c0.002,-0.912 0.088,-1.822 0.259,-2.727c0.171,-0.905 0.431,-1.788 0.777,-2.643c0.347,-0.856 0.791,-1.633 1.331,-2.333c0.541,-0.701 1.181,-1.292 1.92,-1.779c0.739,-0.485 1.595,-0.814 2.571,-0.985c0.789,-0.137 1.546,-0.139 2.268,-0.003c0.724,0.138 1.374,0.392 1.958,0.766c0.582,0.373 1.071,0.861 1.467,1.462c0.396,0.602 0.661,1.307 0.804,2.116c0.152,0.879 0.087,1.795 -0.192,2.75c-0.279,0.952 -0.732,1.886 -1.36,2.797c-0.628,0.913 -1.417,1.765 -2.361,2.559c-0.948,0.793 -2.008,1.465 -3.176,2.02c0.278,0.345 0.541,0.628 0.79,0.848c0.25,0.22 0.492,0.382 0.727,0.485c0.239,0.104 0.476,0.165 0.721,0.183c0.244,0.014 0.498,0 0.766,-0.047c0.849,-0.148 1.713,-0.473 2.593,-0.977c0.88,-0.506 1.721,-1.088 2.524,-1.755c0.804,-0.664 1.547,-1.367 2.235,-2.108c0.689,-0.74 1.257,-1.427 1.716,-2.063l3.23,2.371c-1.022,1.505 -2.142,2.879 -3.372,4.113c-0.532,0.531 -1.114,1.063 -1.744,1.598c-0.628,0.532 -1.3,1.025 -2.016,1.477c-0.713,0.453 -1.469,0.848 -2.26,1.181c-0.796,0.336 -1.617,0.578 -2.465,0.726ZM80.38,61.603c0.509,-0.088 1.041,-0.318 1.596,-0.686c0.555,-0.365 1.055,-0.8 1.5,-1.3c0.445,-0.502 0.803,-1.024 1.071,-1.566c0.27,-0.544 0.366,-1.042 0.289,-1.495c-0.112,-0.639 -0.319,-1.143 -0.623,-1.512c-0.305,-0.369 -0.628,-0.527 -0.966,-0.468c-0.607,0.107 -1.107,0.311 -1.5,0.612c-0.391,0.303 -0.702,0.659 -0.928,1.071c-0.227,0.412 -0.39,0.861 -0.486,1.354c-0.097,0.492 -0.15,0.978 -0.161,1.463c-0.011,0.484 0.008,0.947 0.056,1.391c0.047,0.444 0.099,0.822 0.152,1.136Z" style="fill:#fff;fill-rule:nonzero;"/><path d="M93.247,65.073c-0.164,-0.934 -0.295,-2.025 -0.394,-3.272c-0.098,-1.245 -0.174,-2.517 -0.224,-3.813c-0.052,-1.299 -0.073,-2.555 -0.065,-3.767c0.011,-1.212 0.039,-2.253 0.093,-3.124c0.04,-0.68 0.248,-1.277 0.618,-1.796c0.365,-0.516 0.934,-0.84 1.696,-0.973c0.762,-0.133 1.333,0.008 1.71,0.424c0.376,0.416 0.635,1.013 0.767,1.792c0.039,0.213 0.067,0.504 0.085,0.873c0.022,0.368 0.036,0.775 0.047,1.218c0.013,0.444 0.024,0.901 0.031,1.373c0.01,0.472 0.016,0.909 0.021,1.309c0.003,0.4 0.011,0.751 0.019,1.048c0.008,0.299 0.018,0.498 0.036,0.596l0.424,-0.074c0.057,-0.171 0.148,-0.446 0.27,-0.826c0.126,-0.38 0.268,-0.814 0.43,-1.31c0.16,-0.495 0.336,-1.019 0.524,-1.57c0.19,-0.55 0.361,-1.077 0.524,-1.58c0.161,-0.501 0.309,-0.948 0.445,-1.336c0.139,-0.389 0.24,-0.677 0.309,-0.864c0.318,-0.844 0.746,-1.457 1.274,-1.842c0.529,-0.386 1.148,-0.638 1.857,-0.76c0.705,-0.124 1.317,0.076 1.839,0.597c0.521,0.523 0.872,1.308 1.052,2.356c0.028,0.157 0.041,0.424 0.041,0.803c0.003,0.38 -0.005,0.833 -0.016,1.361c-0.011,0.528 -0.025,1.107 -0.036,1.737c-0.016,0.631 -0.016,1.274 -0.005,1.928c0.013,0.654 0.038,1.299 0.085,1.934c0.043,0.634 0.112,1.213 0.201,1.737c0.15,0.879 0.386,1.583 0.702,2.111c0.317,0.528 0.708,0.752 1.176,0.67c0.212,-0.037 0.445,-0.142 0.696,-0.318c0.254,-0.175 0.809,-0.543 1.14,-0.352c0.819,0.47 1.088,2.675 0.492,3.71c-0.372,0.646 -1.334,1.126 -2.003,1.468c-0.667,0.344 -1.391,0.583 -2.167,0.718c-0.778,0.136 -1.528,-0.312 -2.253,-1.348c-0.724,-1.034 -1.276,-2.635 -1.649,-4.803c-0.148,-0.849 -0.251,-1.777 -0.307,-2.78c-0.057,-1.004 -0.101,-2.088 -0.128,-3.252l-0.339,0.059l-3.638,12.02c-0.184,0.632 -0.43,1.082 -0.75,1.357c-0.317,0.273 -0.708,0.451 -1.174,0.532c-0.582,0.101 -1.068,0.059 -1.464,-0.129c-0.396,-0.186 -0.727,-0.472 -0.99,-0.856c-0.262,-0.384 -0.473,-0.836 -0.628,-1.358c-0.15,-0.518 -0.278,-1.061 -0.374,-1.628Z" style="fill:#fff;fill-rule:nonzero;"/></g><g id="Duizend"><path d="M32.425,91.091c2.304,-0.402 4.386,-0.568 6.248,-0.496c1.86,0.07 3.526,0.325 4.992,0.77c1.468,0.444 2.751,1.058 3.846,1.836c1.096,0.782 2.029,1.678 2.802,2.688c0.772,1.011 1.396,2.12 1.874,3.32c0.478,1.199 0.83,2.454 1.056,3.755c0.309,1.785 0.425,3.631 0.348,5.533c-0.078,1.904 -0.343,3.776 -0.794,5.623c-0.452,1.847 -1.094,3.615 -1.929,5.307c-0.835,1.693 -1.863,3.221 -3.081,4.586c-1.22,1.363 -2.62,2.519 -4.206,3.459c-1.584,0.94 -3.358,1.583 -5.322,1.923c-0.664,0.117 -1.351,0.185 -2.062,0.205c-0.709,0.024 -1.404,0.005 -2.082,-0.052c-0.68,-0.057 -1.328,-0.14 -1.944,-0.251c-0.618,-0.112 -1.164,-0.244 -1.642,-0.394c-0.193,-0.024 -0.349,-0.066 -0.469,-0.126c-0.12,-0.06 -0.217,-0.138 -0.292,-0.234c-0.076,-0.096 -0.133,-0.222 -0.175,-0.375c-0.04,-0.152 -0.082,-0.352 -0.124,-0.591c-0.408,-2.352 -0.765,-4.769 -1.072,-7.254c-0.308,-2.487 -0.481,-4.938 -0.521,-7.356c-0.041,-2.416 0.101,-4.751 0.423,-7.004c0.322,-2.252 0.91,-4.322 1.762,-6.208c0.883,-0.867 1.735,-1.375 2.555,-1.519c1.031,-0.18 1.993,0.252 2.888,1.292c-0.499,0.992 -0.873,2.065 -1.124,3.219c-0.251,1.15 -0.423,2.346 -0.516,3.584c-0.091,1.234 -0.129,2.484 -0.113,3.75c0.016,1.268 0.041,2.506 0.076,3.711c0.028,1.339 0.056,2.481 0.082,3.435c0.027,0.95 0.06,1.781 0.104,2.489c0.043,0.705 0.091,1.325 0.147,1.856c0.056,0.531 0.127,1.043 0.212,1.537c0.091,0.527 0.185,0.963 0.281,1.308c0.096,0.351 0.231,0.618 0.403,0.806c0.171,0.189 0.403,0.305 0.695,0.35c0.29,0.043 0.67,0.028 1.137,-0.054c1.413,-0.247 2.707,-0.759 3.883,-1.543c1.174,-0.781 2.217,-1.737 3.128,-2.864c0.91,-1.128 1.685,-2.393 2.325,-3.789c0.639,-1.396 1.137,-2.842 1.499,-4.334c0.36,-1.492 0.577,-2.986 0.653,-4.481c0.076,-1.495 -0.001,-2.909 -0.232,-4.24c-0.285,-1.643 -0.808,-3.068 -1.569,-4.271c-0.763,-1.202 -1.706,-2.169 -2.83,-2.901c-1.124,-0.732 -2.405,-1.216 -3.844,-1.453c-1.44,-0.24 -2.972,-0.216 -4.597,0.068c-1.187,0.205 -2.351,0.481 -3.493,0.828c-1.142,0.344 -2.184,0.752 -3.13,1.224c-0.944,0.472 -1.754,1.002 -2.43,1.593c-0.676,0.591 -1.151,1.243 -1.422,1.944c-0.753,1.783 -1.388,3.167 -1.9,4.152c-0.513,0.987 -0.996,1.523 -1.448,1.599c-0.621,0.109 -1.056,-0.552 -1.304,-1.983c-0.241,-1.389 -0.277,-2.667 -0.109,-3.835c0.168,-1.166 0.501,-2.237 0.996,-3.205c0.495,-0.972 1.131,-1.832 1.909,-2.588c0.779,-0.755 1.662,-1.417 2.647,-1.992c0.984,-0.576 2.056,-1.057 3.211,-1.448c1.152,-0.391 2.352,-0.693 3.594,-0.909Z" style="fill:#fff;fill-rule:nonzero;"/><path d="M68.987,103.131c0.066,0.384 0.113,0.912 0.144,1.584c0.029,0.674 0.045,1.417 0.048,2.226c0.001,0.81 -0.003,1.646 -0.014,2.511c-0.012,0.861 -0.021,1.667 -0.029,2.413c-0.009,0.75 -0.009,1.4 0,1.96c0.011,0.563 0.033,0.948 0.071,1.162c0.069,0.396 0.138,0.758 0.212,1.089c0.072,0.331 0.164,0.612 0.277,0.849c0.113,0.236 0.257,0.411 0.428,0.518c0.172,0.106 0.4,0.138 0.683,0.088c0.31,-0.054 0.674,-0.198 1.093,-0.432c0.419,-0.234 0.856,-0.526 1.311,-0.872c0.454,-0.35 0.917,-0.738 1.382,-1.162c0.466,-0.421 0.903,-0.861 1.312,-1.312c0.41,-0.45 0.778,-0.89 1.104,-1.32c0.327,-0.426 0.583,-0.82 0.768,-1.173c0.082,0.468 0.159,0.892 0.231,1.272c0.073,0.383 0.14,0.748 0.201,1.093c0.06,0.348 0.126,0.706 0.196,1.072c0.071,0.366 0.146,0.778 0.224,1.231c-0.257,0.367 -0.585,0.765 -0.982,1.2c-0.399,0.432 -0.846,0.877 -1.342,1.328c-0.497,0.453 -1.03,0.896 -1.604,1.331c-0.572,0.434 -1.154,0.833 -1.748,1.193c-0.592,0.36 -1.188,0.665 -1.782,0.921c-0.596,0.258 -1.163,0.432 -1.7,0.528c-0.536,0.092 -1.015,0.068 -1.434,-0.081c-0.418,-0.145 -0.798,-0.385 -1.14,-0.72c-0.341,-0.335 -0.654,-0.751 -0.937,-1.249c-0.281,-0.498 -0.551,-1.063 -0.805,-1.69c-0.392,0.754 -0.824,1.463 -1.292,2.119c-0.47,0.659 -0.96,1.245 -1.475,1.757c-0.515,0.512 -1.053,0.94 -1.613,1.276c-0.56,0.34 -1.123,0.558 -1.688,0.656c-0.467,0.083 -0.918,0.082 -1.355,-0.005c-0.436,-0.084 -0.847,-0.284 -1.227,-0.596c-0.382,-0.311 -0.717,-0.753 -1.005,-1.324c-0.288,-0.569 -0.509,-1.301 -0.664,-2.195c-0.189,-1.09 -0.3,-2.502 -0.331,-4.234c-0.03,-1.732 -0.042,-3.716 -0.037,-5.95c-0.009,-0.217 -0.005,-0.514 0.009,-0.888c0.015,-0.373 0.052,-0.788 0.114,-1.236c0.06,-0.448 0.152,-0.912 0.273,-1.382c0.123,-0.474 0.285,-0.912 0.493,-1.312c0.207,-0.402 0.472,-0.747 0.792,-1.034c0.322,-0.292 0.707,-0.481 1.156,-0.576c0.754,-0.101 1.307,-0.101 1.662,0.008c0.353,0.104 0.55,0.279 0.593,0.522c0.003,0.77 0.009,1.633 0.021,2.581c0.012,0.945 0.022,1.901 0.028,2.861c0.007,0.96 0.016,1.9 0.028,2.81c0.012,0.909 0.022,1.721 0.03,2.434c0.006,0.714 0.016,1.29 0.026,1.724c0.01,0.436 0.016,0.662 0.019,0.678c0.044,0.253 0.112,0.494 0.201,0.718c0.09,0.227 0.202,0.422 0.332,0.587c0.131,0.168 0.283,0.296 0.459,0.38c0.175,0.087 0.369,0.112 0.581,0.075c0.311,-0.054 0.615,-0.194 0.912,-0.412c0.296,-0.219 0.563,-0.506 0.8,-0.862c0.238,-0.354 0.431,-0.773 0.579,-1.26c0.148,-0.484 0.231,-1.021 0.247,-1.609l0.225,-11.161c0.012,-0.352 0.248,-0.688 0.711,-1.008c0.46,-0.323 1.009,-0.539 1.645,-0.65c0.721,-0.126 1.316,-0.097 1.783,0.084c0.462,0.18 0.73,0.47 0.8,0.866Z" style="fill:#fff;fill-rule:nonzero;"/><path d="M88.489,114.663c-0.426,0.56 -0.972,1.166 -1.638,1.83c-0.662,0.664 -1.394,1.295 -2.194,1.894c-0.801,0.598 -1.629,1.128 -2.489,1.584c-0.86,0.456 -1.699,0.754 -2.519,0.898c-0.734,0.128 -1.37,0.136 -1.908,0.016c-0.537,-0.117 -0.994,-0.333 -1.368,-0.646c-0.374,-0.314 -0.676,-0.726 -0.901,-1.234c-0.227,-0.508 -0.395,-1.082 -0.505,-1.718c-0.155,-0.894 -0.232,-1.948 -0.234,-3.167c0,-1.219 0.039,-2.487 0.116,-3.808c0.076,-1.319 0.171,-2.639 0.284,-3.957c0.115,-1.319 0.206,-2.531 0.276,-3.639c0.035,-0.385 0.179,-0.737 0.43,-1.052c0.25,-0.311 0.55,-0.584 0.897,-0.809c0.347,-0.227 0.713,-0.418 1.103,-0.566c0.389,-0.146 0.746,-0.25 1.072,-0.306c0.593,-0.102 1.014,-0.064 1.265,0.12c0.251,0.182 0.407,0.458 0.471,0.825c0.054,0.312 0.061,0.776 0.022,1.387c-0.04,0.612 -0.101,1.308 -0.184,2.089c-0.082,0.781 -0.169,1.621 -0.261,2.52c-0.092,0.9 -0.169,1.799 -0.233,2.692c-0.063,0.893 -0.095,1.76 -0.095,2.599c0,0.841 0.056,1.584 0.169,2.237c0.111,0.639 0.27,1.135 0.476,1.484c0.207,0.349 0.528,0.485 0.966,0.409c0.51,-0.086 1.045,-0.361 1.605,-0.824c0.56,-0.465 1.115,-1.001 1.664,-1.614c0.549,-0.614 1.081,-1.244 1.592,-1.888c0.517,-0.642 0.973,-1.196 1.372,-1.662l0.749,4.306ZM75.227,94.469c-0.056,-0.326 -0.051,-0.705 0.02,-1.142c0.07,-0.435 0.233,-0.862 0.489,-1.279c0.255,-0.416 0.627,-0.796 1.113,-1.136c0.487,-0.34 1.126,-0.581 1.918,-0.717c0.494,-0.084 0.97,-0.111 1.428,-0.075c0.457,0.036 0.869,0.143 1.234,0.32c0.367,0.18 0.676,0.44 0.935,0.792c0.255,0.348 0.429,0.785 0.521,1.307c0.084,0.482 0.086,0.964 0.011,1.445c-0.079,0.479 -0.251,0.927 -0.529,1.341c-0.279,0.414 -0.656,0.774 -1.134,1.084c-0.478,0.31 -1.077,0.528 -1.798,0.654c-1.244,0.216 -2.212,0.082 -2.91,-0.404c-0.697,-0.484 -1.129,-1.214 -1.298,-2.19Z" style="fill:#fff;fill-rule:nonzero;"/><path d="M84.504,115.931c-0.055,-0.312 -0.041,-0.583 0.036,-0.806c0.076,-0.225 0.193,-0.446 0.344,-0.661c0.149,-0.215 0.331,-0.441 0.535,-0.676c0.208,-0.232 0.416,-0.513 0.621,-0.841l5.052,-10.032c-0.273,-0.07 -0.512,-0.138 -0.711,-0.202c-0.2,-0.066 -0.382,-0.128 -0.544,-0.18c-0.161,-0.053 -0.325,-0.085 -0.489,-0.101c-0.161,-0.016 -0.336,-0.008 -0.519,0.024c-0.453,0.081 -0.825,0.153 -1.12,0.219c-0.296,0.066 -0.536,0.158 -0.726,0.278c-0.192,0.123 -0.354,0.282 -0.484,0.479c-0.134,0.199 -0.274,0.472 -0.418,0.817c-0.318,0.755 -0.597,1.318 -0.841,1.691c-0.244,0.373 -0.48,0.579 -0.724,0.62c-0.227,0.039 -0.403,-0.036 -0.528,-0.224c-0.129,-0.192 -0.221,-0.456 -0.281,-0.797c-0.026,-0.14 -0.044,-0.296 -0.058,-0.462c-0.014,-0.164 -0.022,-0.334 -0.025,-0.51c0,-1.268 0.128,-2.32 0.393,-3.155c0.262,-0.835 0.602,-1.503 1.018,-2.007c0.417,-0.502 0.873,-0.873 1.378,-1.117c0.503,-0.24 0.982,-0.399 1.435,-0.477c0.339,-0.06 0.692,-0.038 1.06,0.066c0.365,0.103 0.735,0.227 1.099,0.367c0.365,0.139 0.737,0.26 1.112,0.364c0.373,0.101 0.749,0.128 1.117,0.079c0.284,-0.034 0.543,-0.074 0.779,-0.114c0.232,-0.041 0.448,-0.08 0.644,-0.113c0.565,-0.099 1.017,-0.188 1.353,-0.268c0.333,-0.081 0.587,-0.148 0.759,-0.208c0.172,-0.06 0.293,-0.104 0.358,-0.139c0.068,-0.033 0.123,-0.054 0.164,-0.062c0.495,-0.086 0.883,0.025 1.162,0.333c0.278,0.309 0.472,0.763 0.573,1.359c0.069,0.381 0.096,0.801 0.087,1.253c-0.011,0.119 -0.126,0.289 -0.35,0.511c-0.224,0.221 -0.62,0.462 -1.185,0.72c-0.117,0.341 -0.323,0.829 -0.62,1.468c-0.3,0.636 -0.645,1.346 -1.039,2.13c-0.396,0.784 -0.809,1.594 -1.24,2.427c-0.432,0.833 -0.841,1.617 -1.232,2.349c-0.388,0.732 -0.732,1.367 -1.024,1.91c-0.293,0.538 -0.486,0.905 -0.584,1.096l-0.033,0.445c0.017,-0.003 0.151,0.025 0.411,0.083c0.257,0.057 0.557,0.118 0.904,0.184c0.346,0.062 0.708,0.112 1.085,0.146c0.376,0.038 0.699,0.032 0.969,-0.014c0.594,-0.104 1.12,-0.287 1.576,-0.548c0.459,-0.262 0.87,-0.567 1.243,-0.908c0.369,-0.342 0.708,-0.695 1.017,-1.063c0.308,-0.368 0.603,-0.716 0.891,-1.041c0.284,-0.328 0.573,-0.608 0.868,-0.842c0.296,-0.234 0.617,-0.382 0.971,-0.442c0.27,-0.047 0.525,-0.028 0.765,0.062c0.243,0.088 0.453,0.219 0.636,0.394c0.184,0.173 0.337,0.374 0.457,0.609c0.123,0.235 0.202,0.473 0.246,0.713c0.07,0.412 -0.011,0.867 -0.246,1.367c-0.233,0.5 -0.577,1.008 -1.025,1.524c-0.448,0.519 -0.987,1.028 -1.612,1.531c-0.629,0.502 -1.296,0.966 -2,1.388c-0.704,0.42 -1.435,0.786 -2.192,1.092c-0.753,0.305 -1.477,0.522 -2.169,0.641c-0.058,0.008 -0.211,0.005 -0.462,-0.011c-0.25,-0.013 -0.585,-0.052 -1.005,-0.12c-0.417,-0.065 -0.907,-0.158 -1.467,-0.281c-0.56,-0.12 -1.18,-0.289 -1.857,-0.509c-0.509,0.264 -0.963,0.43 -1.359,0.501c-0.424,0.073 -0.805,0.063 -1.138,-0.031c-0.336,-0.093 -0.632,-0.25 -0.878,-0.472c-0.25,-0.22 -0.453,-0.482 -0.606,-0.792c-0.152,-0.309 -0.262,-0.648 -0.327,-1.014Z" style="fill:#fff;fill-rule:nonzero;"/><path d="M108.332,115.869c-1.328,0.234 -2.531,0.195 -3.612,-0.113c-1.083,-0.309 -2.025,-0.812 -2.828,-1.512c-0.805,-0.699 -1.467,-1.553 -1.984,-2.567c-0.519,-1.01 -0.877,-2.105 -1.081,-3.281c-0.139,-0.795 -0.208,-1.645 -0.206,-2.56c0.003,-0.913 0.088,-1.821 0.26,-2.727c0.17,-0.908 0.428,-1.786 0.776,-2.642c0.347,-0.858 0.79,-1.634 1.331,-2.334c0.54,-0.697 1.18,-1.294 1.917,-1.78c0.738,-0.484 1.592,-0.813 2.571,-0.984c0.791,-0.138 1.547,-0.138 2.271,-0.001c0.721,0.139 1.374,0.391 1.957,0.764c0.581,0.373 1.071,0.861 1.467,1.465c0.396,0.602 0.661,1.306 0.802,2.115c0.154,0.879 0.088,1.795 -0.19,2.749c-0.279,0.955 -0.732,1.887 -1.362,2.799c-0.628,0.915 -1.417,1.765 -2.361,2.56c-0.948,0.792 -2.008,1.467 -3.177,2.019c0.278,0.349 0.541,0.63 0.792,0.85c0.25,0.219 0.492,0.382 0.726,0.486c0.238,0.104 0.476,0.164 0.722,0.181c0.242,0.016 0.497,0 0.765,-0.047c0.849,-0.146 1.713,-0.472 2.593,-0.974c0.879,-0.506 1.722,-1.088 2.524,-1.755c0.803,-0.664 1.547,-1.364 2.235,-2.107c0.688,-0.742 1.26,-1.426 1.716,-2.062l3.229,2.372c-1.021,1.505 -2.142,2.877 -3.369,4.109c-0.533,0.532 -1.115,1.065 -1.745,1.599c-0.628,0.529 -1.3,1.024 -2.016,1.476c-0.714,0.453 -1.471,0.848 -2.26,1.184c-0.794,0.328 -1.614,0.568 -2.463,0.718ZM103.78,106.373c0.511,-0.088 1.041,-0.317 1.596,-0.685c0.555,-0.368 1.055,-0.803 1.5,-1.303c0.445,-0.5 0.803,-1.022 1.073,-1.565c0.268,-0.541 0.364,-1.041 0.287,-1.495c-0.112,-0.638 -0.317,-1.141 -0.623,-1.513c-0.305,-0.369 -0.628,-0.528 -0.968,-0.469c-0.605,0.106 -1.105,0.312 -1.496,0.612c-0.394,0.305 -0.702,0.658 -0.929,1.072c-0.227,0.413 -0.388,0.862 -0.487,1.356c-0.096,0.492 -0.15,0.977 -0.161,1.464c-0.011,0.481 0.008,0.948 0.057,1.392c0.047,0.442 0.099,0.818 0.151,1.134Z" style="fill:#fff;fill-rule:nonzero;"/><path d="M116.648,109.844c-0.161,-0.935 -0.295,-2.027 -0.393,-3.272c-0.099,-1.245 -0.175,-2.517 -0.224,-3.813c-0.052,-1.298 -0.074,-2.552 -0.063,-3.766c0.008,-1.21 0.036,-2.252 0.091,-3.125c0.041,-0.679 0.248,-1.276 0.617,-1.793c0.367,-0.518 0.935,-0.843 1.697,-0.975c0.762,-0.132 1.334,0.008 1.71,0.423c0.377,0.417 0.634,1.017 0.768,1.796c0.034,0.21 0.065,0.502 0.084,0.869c0.022,0.369 0.036,0.775 0.046,1.217c0.014,0.444 0.026,0.903 0.031,1.374c0.011,0.472 0.016,0.912 0.021,1.309c0.003,0.401 0.011,0.751 0.019,1.049c0.008,0.298 0.023,0.495 0.036,0.594l0.424,-0.074c0.057,-0.172 0.148,-0.448 0.271,-0.825c0.125,-0.38 0.268,-0.815 0.429,-1.312c0.161,-0.495 0.336,-1.019 0.524,-1.568c0.191,-0.552 0.364,-1.081 0.524,-1.584c0.161,-0.501 0.309,-0.947 0.445,-1.336c0.139,-0.388 0.24,-0.677 0.31,-0.861c0.317,-0.847 0.745,-1.459 1.273,-1.844c0.531,-0.386 1.151,-0.639 1.857,-0.76c0.707,-0.122 1.32,0.078 1.839,0.598c0.523,0.523 0.872,1.307 1.055,2.358c0.028,0.156 0.038,0.421 0.038,0.805c0,0.377 -0.005,0.831 -0.013,1.36c-0.013,0.528 -0.027,1.105 -0.039,1.736c-0.012,0.632 -0.016,1.273 -0.002,1.928c0.01,0.653 0.038,1.3 0.084,1.932c0.044,0.636 0.112,1.216 0.202,1.741c0.151,0.878 0.386,1.583 0.703,2.111c0.317,0.527 0.708,0.751 1.177,0.669c0.211,-0.036 0.443,-0.14 0.698,-0.317c0.25,-0.176 0.521,-0.393 0.802,-0.653c0.284,-0.262 0.568,-0.555 0.852,-0.883c0.287,-0.328 0.568,-0.661 0.844,-1.003c0.635,-0.794 1.288,-1.682 1.963,-2.661l1.189,4.697l-0.921,0.992c-0.503,0.54 -1.016,1.084 -1.541,1.626c-0.524,0.544 -1.082,1.046 -1.672,1.508c-0.588,0.461 -1.219,0.861 -1.888,1.204c-0.667,0.345 -1.391,0.582 -2.167,0.717c-0.779,0.136 -1.528,-0.312 -2.255,-1.348c-0.724,-1.032 -1.276,-2.635 -1.65,-4.804c-0.144,-0.851 -0.251,-1.776 -0.306,-2.781c-0.057,-1.006 -0.097,-2.088 -0.128,-3.252l-0.34,0.058l-3.638,12.023c-0.183,0.631 -0.43,1.084 -0.748,1.357c-0.315,0.274 -0.708,0.452 -1.175,0.531c-0.58,0.101 -1.068,0.06 -1.465,-0.127c-0.396,-0.189 -0.727,-0.472 -0.988,-0.858c-0.263,-0.386 -0.472,-0.839 -0.63,-1.359c-0.153,-0.519 -0.278,-1.06 -0.377,-1.628Z" style="fill:#fff;fill-rule:nonzero;"/><path d="M156.497,100.347c1.534,0.049 1.514,3.66 0.8,4.648c-0.286,0.395 -0.832,0.861 -1.242,1.188c-0.41,0.325 -0.816,0.624 -1.222,0.89c-0.406,0.268 -0.805,0.499 -1.198,0.694c-0.399,0.194 -0.774,0.318 -1.126,0.382c-0.197,0.032 -0.5,0.04 -0.902,0.024c-0.404,-0.016 -0.86,-0.114 -1.362,-0.297c-0.505,-0.184 -1.029,-0.481 -1.577,-0.899c-0.545,-0.417 -1.06,-1.005 -1.54,-1.768c-0.435,0.602 -0.905,1.186 -1.413,1.748c-0.506,0.564 -1.044,1.07 -1.615,1.519c-0.571,0.451 -1.159,0.835 -1.765,1.152c-0.607,0.316 -1.238,0.529 -1.886,0.644c-0.917,0.159 -1.75,0.101 -2.488,-0.18c-0.738,-0.28 -1.388,-0.708 -1.948,-1.292c-0.56,-0.584 -1.025,-1.271 -1.385,-2.071c-0.363,-0.794 -0.624,-1.64 -0.779,-2.533c-0.156,-0.907 -0.198,-1.845 -0.129,-2.812c0.075,-0.969 0.255,-1.927 0.549,-2.877c0.296,-0.948 0.695,-1.863 1.195,-2.75c0.503,-0.881 1.104,-1.694 1.805,-2.436c0.702,-0.744 1.49,-1.396 2.37,-1.957c0.877,-0.563 1.844,-0.985 2.901,-1.272c-0.273,-1.82 -0.417,-3.643 -0.445,-5.463c-0.024,-1.82 0.06,-3.574 0.249,-5.253c0.188,-1.683 0.477,-3.259 0.871,-4.729c0.393,-1.471 0.877,-2.766 1.456,-3.888c0.58,-1.123 1.241,-2.039 1.992,-2.746c0.75,-0.708 1.58,-1.14 2.481,-1.298c0.664,-0.116 1.26,-0.04 1.787,0.225c0.528,0.267 0.984,0.661 1.374,1.184c0.388,0.523 0.711,1.153 0.972,1.888c0.258,0.736 0.46,1.509 0.596,2.316c0.086,0.496 0.154,1.009 0.203,1.54c0.161,2.031 0.151,3.976 -0.036,5.841c-0.185,1.864 -0.467,3.698 -0.836,5.5c-0.372,1.803 -0.805,3.6 -1.295,5.394c-0.489,1.794 -0.948,3.645 -1.372,5.56c-0.036,0.21 -0.065,0.465 -0.084,0.758c-0.025,0.296 -0.036,0.616 -0.041,0.963c-0.005,0.341 0,0.692 0.02,1.047c0.019,0.354 0.055,0.694 0.112,1.021c0.071,0.411 0.161,0.796 0.276,1.153c0.112,0.362 0.251,0.678 0.415,0.948c0.164,0.271 0.357,0.472 0.576,0.612c0.221,0.136 0.472,0.18 0.754,0.131c0.268,-0.047 0.552,-0.149 0.852,-0.312c0.3,-0.161 0.61,-0.364 0.932,-0.612c0.32,-0.245 0.64,-0.517 0.962,-0.812c0.321,-0.295 0.763,-0.727 1.186,-0.713ZM143.173,93.241c-0.854,0.618 -1.581,1.362 -2.177,2.232c-0.599,0.868 -1.068,1.782 -1.408,2.73c-0.339,0.949 -0.557,1.885 -0.657,2.808c-0.104,0.921 -0.094,1.738 0.029,2.446c0.047,0.284 0.132,0.563 0.244,0.834c0.112,0.272 0.272,0.508 0.48,0.704c0.207,0.196 0.48,0.341 0.816,0.425c0.333,0.087 0.751,0.089 1.247,0.003c0.253,-0.043 0.492,-0.152 0.718,-0.324c0.227,-0.17 0.432,-0.378 0.623,-0.623c0.195,-0.245 0.367,-0.516 0.528,-0.812c0.159,-0.299 0.3,-0.604 0.419,-0.917c0.284,-0.72 0.516,-1.524 0.696,-2.4c-0.078,-0.192 -0.167,-0.5 -0.268,-0.927c-0.104,-0.425 -0.208,-0.905 -0.314,-1.433c-0.106,-0.528 -0.216,-1.078 -0.328,-1.639c-0.112,-0.564 -0.21,-1.08 -0.301,-1.547c-0.087,-0.465 -0.167,-0.848 -0.232,-1.138c-0.063,-0.298 -0.101,-0.436 -0.115,-0.422ZM150.468,76.097c-0.088,-1.006 -0.183,-1.801 -0.284,-2.381c-0.133,-0.765 -0.292,-1.285 -0.476,-1.56c-0.188,-0.273 -0.407,-0.388 -0.661,-0.344c-0.454,0.079 -0.811,0.437 -1.082,1.075c-0.265,0.638 -0.466,1.428 -0.59,2.369c-0.131,0.943 -0.206,1.972 -0.232,3.084c-0.027,1.113 -0.022,2.187 0.01,3.219c0.034,1.028 0.08,1.957 0.138,2.778c0.054,0.823 0.094,1.407 0.128,1.751c0.064,0.704 0.134,1.381 0.21,2.033c0.078,0.648 0.152,1.244 0.232,1.776c0.078,0.534 0.151,0.998 0.219,1.396c0.072,0.396 0.123,0.7 0.159,0.915l0.034,0.212c0.487,-1.983 0.914,-3.947 1.271,-5.893c0.148,-0.827 0.295,-1.696 0.435,-2.604c0.14,-0.907 0.254,-1.814 0.346,-2.722c0.091,-0.905 0.151,-1.792 0.183,-2.658c0.033,-0.867 0.017,-1.683 -0.04,-2.446Z" style="fill:#fff;fill-rule:nonzero;"/></g><g id="en"><path d="M55.451,150.631c-1.328,0.232 -2.532,0.194 -3.612,-0.115c-1.08,-0.307 -2.023,-0.809 -2.828,-1.511c-0.806,-0.701 -1.468,-1.554 -1.986,-2.565c-0.517,-1.013 -0.877,-2.107 -1.081,-3.284c-0.137,-0.793 -0.207,-1.645 -0.204,-2.56c0.001,-0.913 0.088,-1.82 0.259,-2.727c0.169,-0.906 0.429,-1.786 0.776,-2.64c0.346,-0.857 0.79,-1.636 1.33,-2.336c0.542,-0.698 1.182,-1.294 1.919,-1.778c0.737,-0.486 1.595,-0.815 2.571,-0.986c0.79,-0.138 1.548,-0.137 2.27,-0.001c0.723,0.139 1.375,0.392 1.956,0.765c0.583,0.372 1.071,0.862 1.467,1.464c0.395,0.602 0.664,1.307 0.804,2.116c0.152,0.878 0.088,1.794 -0.191,2.75c-0.278,0.953 -0.732,1.885 -1.36,2.8c-0.629,0.914 -1.417,1.762 -2.362,2.557c-0.947,0.795 -2.006,1.467 -3.178,2.021c0.279,0.347 0.543,0.628 0.792,0.85c0.25,0.218 0.492,0.38 0.728,0.484c0.236,0.104 0.476,0.166 0.72,0.18c0.243,0.018 0.499,0.002 0.767,-0.043c0.849,-0.148 1.712,-0.475 2.593,-0.977c0.88,-0.506 1.723,-1.088 2.524,-1.755c0.802,-0.664 1.547,-1.364 2.234,-2.107c0.686,-0.74 1.26,-1.425 1.717,-2.062l3.229,2.372c-1.02,1.505 -2.144,2.876 -3.37,4.112c-0.535,0.53 -1.115,1.062 -1.744,1.594c-0.628,0.532 -1.3,1.028 -2.016,1.478c-0.715,0.453 -1.468,0.848 -2.262,1.184c-0.793,0.333 -1.614,0.574 -2.462,0.72ZM50.9,141.133c0.509,-0.088 1.041,-0.314 1.596,-0.685c0.556,-0.365 1.055,-0.8 1.5,-1.3c0.444,-0.503 0.801,-1.024 1.071,-1.568c0.27,-0.541 0.366,-1.041 0.288,-1.495c-0.111,-0.638 -0.319,-1.14 -0.623,-1.512c-0.304,-0.368 -0.625,-0.528 -0.965,-0.468c-0.608,0.104 -1.108,0.31 -1.5,0.612c-0.392,0.302 -0.702,0.659 -0.928,1.071c-0.228,0.412 -0.39,0.861 -0.486,1.356c-0.097,0.491 -0.152,0.977 -0.162,1.463c-0.011,0.481 0.008,0.948 0.056,1.39c0.048,0.446 0.098,0.827 0.153,1.136Z" style="fill:#fff;fill-rule:nonzero;"/><path d="M63.765,144.608c-0.161,-0.937 -0.293,-2.027 -0.392,-3.273c-0.1,-1.246 -0.173,-2.516 -0.224,-3.811c-0.05,-1.301 -0.07,-2.555 -0.062,-3.767c0.008,-1.21 0.038,-2.252 0.092,-3.125c0.042,-0.68 0.249,-1.276 0.617,-1.795c0.368,-0.516 0.935,-0.841 1.699,-0.973c0.761,-0.133 1.333,0.008 1.71,0.424c0.379,0.417 0.635,1.013 0.77,1.792c0.037,0.213 0.065,0.503 0.085,0.872c0.021,0.367 0.036,0.773 0.048,1.219c0.011,0.442 0.021,0.901 0.031,1.372c0.009,0.472 0.016,0.909 0.02,1.309c0.004,0.4 0.01,0.751 0.018,1.047c0.007,0.3 0.02,0.494 0.038,0.593l0.422,-0.073c0.059,-0.171 0.15,-0.446 0.274,-0.823c0.124,-0.38 0.266,-0.815 0.428,-1.312c0.161,-0.493 0.337,-1.019 0.525,-1.571c0.189,-0.549 0.363,-1.078 0.524,-1.581c0.161,-0.501 0.309,-0.947 0.445,-1.336c0.138,-0.388 0.24,-0.677 0.308,-0.861c0.319,-0.847 0.744,-1.46 1.275,-1.844c0.531,-0.386 1.149,-0.639 1.856,-0.76c0.707,-0.122 1.32,0.077 1.84,0.596c0.52,0.524 0.871,1.308 1.053,2.357c0.027,0.156 0.04,0.424 0.042,0.805c0,0.379 -0.006,0.832 -0.015,1.362c-0.011,0.528 -0.025,1.106 -0.039,1.737c-0.014,0.631 -0.016,1.272 -0.004,1.927c0.012,0.653 0.04,1.3 0.084,1.932c0.044,0.637 0.112,1.213 0.203,1.74c0.152,0.877 0.387,1.584 0.704,2.109c0.317,0.528 0.708,0.752 1.176,0.669c0.211,-0.034 0.444,-0.14 0.697,-0.316c0.254,-0.176 0.916,-0.464 1.285,-0.353c1.253,0.379 1.308,2.838 0.682,3.712c-0.435,0.608 -1.671,1.127 -2.339,1.469c-0.669,0.344 -1.392,0.583 -2.169,0.718c-0.777,0.134 -1.528,-0.315 -2.253,-1.35c-0.726,-1.034 -1.276,-2.636 -1.652,-4.804c-0.148,-0.849 -0.251,-1.777 -0.307,-2.782c-0.059,-1.003 -0.1,-2.086 -0.128,-3.251l-0.339,0.06l-3.638,12.02c-0.183,0.632 -0.431,1.084 -0.748,1.359c-0.318,0.273 -0.71,0.45 -1.175,0.532c-0.58,0.1 -1.067,0.057 -1.463,-0.13c-0.396,-0.188 -0.726,-0.472 -0.989,-0.857c-0.263,-0.385 -0.472,-0.837 -0.629,-1.359c-0.16,-0.516 -0.287,-1.061 -0.386,-1.625Z" style="fill:#fff;fill-rule:nonzero;"/></g></svg>