<?xml version="1.0" encoding="utf-8"?>
<!-- Generator: Adobe Illustrator 12.0.0, SVG Export Plug-In  -->
<!DOCTYPE svg PUBLIC "-//W3C//DTD SVG 1.1//EN" "http://www.w3.org/Graphics/SVG/1.1/DTD/svg11.dtd" [
	<!ENTITY ns_flows "http://ns.adobe.com/Flows/1.0/">
	<!ENTITY ns_svg "http://www.w3.org/2000/svg">
	<!ENTITY ns_xlink "http://www.w3.org/1999/xlink">
]>
<svg  version="1.1" xmlns="&ns_svg;" xmlns:xlink="&ns_xlink;" xmlns:a="http://ns.adobe.com/AdobeSVGViewerExtensions/3.0/"
	 width="316" height="31" viewBox="-0.667 -0.058 316 31" style="enable-background:new -0.667 -0.058 316 31;"
	 xml:space="preserve">
<defs>
</defs>
<g>
	<path d="M0,9h10.781v10.813H3.594V27H0V9z M7.188,16.219v-3.625H3.594v3.625H7.188z"/>
	<path d="M35.798,9.036h3.6v18h-3.6V9.036z"/>
	<path d="M67.99,19.813v-3.594h-3.594V9h3.594v7.219h3.594v3.594H67.99z M64.396,27v-7.188h3.594V27H64.396z M75.178,16.188
		l-3.594,0.031V9h3.594V16.188z M75.178,19.813V27h-3.594v-7.188H75.178z"/>
	<path d="M110.952,23.406V27h-10.793V9h10.793v3.594h-7.199v3.625h7.199v3.594h-7.199v3.594H110.952z"/>
	<path d="M135.938,12.636V9h3.601v3.636H135.938z M139.539,12.636V23.4h7.2V27h-10.801V12.636H139.539z"/>
	<path d="M171.737,9h10.781v10.813h-7.188V27h-3.594V9z M178.925,16.219v-3.625h-3.594v3.625H178.925z"/>
	<path d="M214.705,19.813h-3.594V27h-3.594V9h10.781v18.013h-3.594V19.813z M211.111,16.219h3.594v-3.625h-3.594V16.219z"/>
	<path d="M250.497,23.4V9h3.6v18h-10.8V9h3.6v14.4H250.497z"/>
	<path d="M279.096,23.406h7.188v-3.594h-7.188V9h10.781v3.594h-7.188v3.625h7.188V27h-10.781V23.406z"/>
</g>
</svg>
