<?xml version="1.0" encoding="utf-8"?>
<!-- Generator: Adobe Illustrator 12.0.0, SVG Export Plug-In  -->
<!DOCTYPE svg PUBLIC "-//W3C//DTD SVG 1.1//EN" "http://www.w3.org/Graphics/SVG/1.1/DTD/svg11.dtd" [
	<!ENTITY ns_flows "http://ns.adobe.com/Flows/1.0/">
	<!ENTITY ns_svg "http://www.w3.org/2000/svg">
	<!ENTITY ns_xlink "http://www.w3.org/1999/xlink">
]>
<svg  version="1.1" xmlns="&ns_svg;" xmlns:xlink="&ns_xlink;" xmlns:a="http://ns.adobe.com/AdobeSVGViewerExtensions/3.0/"
	 width="15" height="15" viewBox="0 0 15 15" xml:space="preserve">
<defs>
</defs>
<polygon display="none" points="5.5,0.1 5.5,2 4.2,2 4.2,3.9 3,3.9 3,5.7 1.7,5.7 1.7,7.6 0.4,7.6 0.4,9.5 1.1,9.5 1.1,11.4
	1.7,11.4 1.7,13.2 3,13.2 3,15.1 10.5,15.1 10.5,13.2 11.8,13.2 11.8,11.3 12.4,11.3 12.4,9.5 13,9.5 13,7.6 11.7,7.6 11.7,5.7
	10.5,5.7 10.5,3.9 9.2,3.9 9.2,2 8,2 8,0.1 "/>
<rect style="fill:#94AABB" x="4.9" width="3.7" height="3.7"/>
<rect style="fill:#94AABB" x="7.4" y="3.7" width="3.7" height="3.7"/>
<rect style="fill:#94AABB" x="2.5" y="3.7" width="3.7" height="3.7"/>
<rect style="fill:#94AABB" y="7.5" width="3.7" height="3.7"/>
<rect style="fill:#94AABB" x="9.8" y="7.4" width="3.7" height="3.7"/>
<rect style="fill:#94AABB" x="8.6" y="11.2" width="3.7" height="3.7"/>
<rect style="fill:#94AABB" x="4.9" y="11.3" width="3.7" height="3.7"/>
<rect style="fill:#94AABB" x="1.2" y="11.2" width="3.7" height="3.7"/>
<rect style="fill:#94AABB" x="5.7" y="3.3" width="3.1" height="8.5"/>
<rect style="fill:#94AABB" x="3.3" y="7" width="7.1" height="4.9"/>
</svg>
