<?xml version="1.0" encoding="utf-8"?>
<!-- Generator: Adobe Illustrator 12.0.0, SVG Export Plug-In  -->
<!DOCTYPE svg PUBLIC "-//W3C//DTD SVG 1.1//EN" "http://www.w3.org/Graphics/SVG/1.1/DTD/svg11.dtd" [
	<!ENTITY ns_flows "http://ns.adobe.com/Flows/1.0/">
	<!ENTITY ns_svg "http://www.w3.org/2000/svg">
	<!ENTITY ns_xlink "http://www.w3.org/1999/xlink">
]>
<svg  version="1.1" xmlns="&ns_svg;" xmlns:xlink="&ns_xlink;" xmlns:a="http://ns.adobe.com/AdobeSVGViewerExtensions/3.0/"
	 width="15" height="15" viewBox="0 0 15 15" xml:space="preserve">
<defs>
</defs>
<polygon style="fill:#94AABB" points="5,0 5,1.9 3.8,1.9 3.8,3.8 2.5,3.8 2.5,5.6 1.3,5.6 1.3,7.6 0,7.6 0,9.4 0.6,9.4 0.6,11.3 1.3,11.3 1.3,13.2
	2.5,13.2 2.5,15.1 10,15.1 10,13.2 11.3,13.2 11.3,11.3 11.9,11.3 11.9,9.5 12.6,9.5 12.6,7.5 11.3,7.5 11.3,5.7 10.1,5.7 10.1,3.8
	8.8,3.8 8.8,1.9 7.5,1.9 7.5,0"/>
</svg>
