<?xml version="1.0" encoding="utf-8"?>
<!-- Generator: Adobe Illustrator 16.0.0, SVG Export Plug-In . SVG Version: 6.00 Build 0)  -->
<!DOCTYPE svg PUBLIC "-//W3C//DTD SVG 1.1//EN" "http://www.w3.org/Graphics/SVG/1.1/DTD/svg11.dtd">
<svg version="1.1" id="Layer_1" xmlns="http://www.w3.org/2000/svg" xmlns:xlink="http://www.w3.org/1999/xlink" x="0px" y="0px"
	 width="32.375px" height="45.522px" viewBox="0 0 32.375 45.522" enable-background="new 0 0 32.375 45.522" xml:space="preserve">
<path fill="none" stroke="#5684F5" stroke-linecap="round" stroke-miterlimit="10" d="M0.5,43.757
	c3.053-2.791,27.802-2.541,31.375,0.417"/>
<path fill="#FFFFFF" stroke="#5684F5" stroke-linecap="round" stroke-miterlimit="10" d="M10.989,36.557
	c0,0-0.739,4.713-0.739,6.325c0,2.854,11.417,2.854,11.417,0c0-1.606-1.025-6.325-1.025-6.325H10.989z"/>
<path fill="#FFFFFF" stroke="#5684F5" stroke-miterlimit="10" d="M4.792,15.007c0-7.75,4.563-10.25,11.625-10.25
	c6.563,0,9.188,5,9.188,10.563s0,11.375,0,13.875s-5.75,9.219-7.781,9.219c-3.656,0-2.031,0-4.156,0s-8.703-7-8.703-9.703
	S4.792,15.007,4.792,15.007z"/>
<path fill="#FFFFFF" stroke="#5684F5" stroke-miterlimit="10" d="M4.792,15.007c0,0,6.563-1.938,7.063-3.563s-3.152-7.493-5-6.688
	C0.979,7.319,4.792,15.007,4.792,15.007z"/>
<path fill="#FFFFFF" stroke="#5684F5" stroke-miterlimit="10" d="M12.498,11.569c-0.055,1.813,10.524,4.5,12.452,2.813
	c1.929-1.688,2.309-6.458,1.758-7.958c-0.551-1.5-4.931-5.906-7.82-5.924c-3.372-0.021-9.806,2.944-8.924,4.694
	C10.845,6.944,12.498,11.569,12.498,11.569z"/>
<circle fill="none" stroke="#5684F5" stroke-miterlimit="10" cx="9.792" cy="21.382" r="1.125"/>
<circle fill="none" stroke="#5684F5" stroke-miterlimit="10" cx="20.792" cy="21.382" r="1.125"/>
<path fill="none" stroke="#5684F5" stroke-linecap="round" stroke-miterlimit="10" d="M11.229,30.132c0.938,0.563,7.5,1.063,8.875,0
	"/>
<path fill="none" stroke="#5684F5" stroke-linecap="round" stroke-miterlimit="10" d="M13.729,32.257
	c-0.5,0.125,2.875-0.188,3.625,0"/>
<path fill="none" stroke="#5684F5" stroke-linecap="round" stroke-miterlimit="10" d="M7.887,18.569
	c0.529-0.438,3.435-0.5,4.013,0.25"/>
<path fill="none" stroke="#5684F5" stroke-linecap="round" stroke-miterlimit="10" d="M22.901,18.569
	c-0.529-0.438-3.435-0.5-4.013,0.25"/>
<path fill="none" stroke="#5684F5" stroke-linecap="round" stroke-miterlimit="10" d="M13.422,26.486
	c0.688,0.438,3.438,0.813,4.188,0"/>
<path fill="#FFFFFF" stroke="#5684F5" stroke-miterlimit="10" d="M26.133,19.84c1.075-0.417,2.325,0.417,2.575,1.542
	s0.276,3.781-0.26,4.531c-0.527,0.737-1.955,0.906-2.518,0.573S26.133,19.84,26.133,19.84z"/>
<path fill="#FFFFFF" stroke="#5684F5" stroke-miterlimit="10" d="M4.469,19.84c-1.075-0.417-2.325,0.417-2.575,1.542
	s-0.276,3.781,0.26,4.531c0.527,0.737,1.955,0.906,2.518,0.573S4.469,19.84,4.469,19.84z"/>
</svg>
