<?xml version="1.0" standalone="no"?>
<!DOCTYPE svg PUBLIC "-//W3C//DTD SVG 1.1//EN" "http://www.w3.org/Graphics/SVG/1.1/DTD/svg11.dtd">
<svg width="100%" height="100%" viewBox="0 0 80 80" version="1.1" xmlns="http://www.w3.org/2000/svg" xmlns:xlink="http://www.w3.org/1999/xlink" xml:space="preserve" style="fill-rule:evenodd;clip-rule:evenodd;stroke-linecap:round;stroke-miterlimit:1.41421;">
    <g transform="matrix(1,0,0,1,10.9607,4.30406)">
        <g transform="matrix(1,0,0,1,13.8125,11.239)">
            <path d="M4.792,15.007C4.792,15.007 11.355,13.069 11.855,11.444C12.355,9.819 8.703,3.951 6.855,4.756C0.979,7.319 4.792,15.007 4.792,15.007Z" style="fill:white;fill-rule:nonzero;"/>
        </g>
        <g transform="matrix(1,0,0,1,13.8125,11.239)">
            <path d="M12.498,11.569C12.443,13.382 23.022,16.069 24.95,14.382C26.879,12.694 27.259,7.924 26.708,6.424C26.157,4.924 21.777,0.518 18.888,0.5C15.516,0.479 9.082,3.444 9.964,5.194C10.845,6.944 12.498,11.569 12.498,11.569Z" style="fill:white;fill-rule:nonzero;"/>
        </g>
        <g transform="matrix(1,0,0,1,13.8125,11.239)">
            <path d="M17.824,38.414L13.668,38.414C11.543,38.414 4.965,31.283 4.965,28.53C4.965,25.777 4.792,15.57 4.792,15.57C4.792,15.57 7.033,14.856 8.67,14.3C9.951,13.865 11.961,12.606 11.961,12.606C11.961,12.606 15.25,14.551 18.555,15.188C23.014,16.048 25.605,14.889 25.605,14.889C25.605,14.889 25.605,26.476 25.605,29.023C25.605,31.57 19.855,38.414 17.824,38.414ZM16.558,31.696C16.787,31.699 17.017,31.703 17.245,31.731C17.4,31.75 17.559,31.774 17.681,31.878C17.849,32.023 17.901,32.27 17.806,32.47C17.783,32.519 17.752,32.565 17.714,32.604C17.677,32.643 17.633,32.675 17.585,32.701C17.505,32.742 17.413,32.762 17.323,32.756C17.256,32.752 17.19,32.733 17.123,32.724C17.06,32.717 16.997,32.711 16.934,32.707C16.543,32.688 16.152,32.696 15.761,32.707C15.433,32.719 15.105,32.732 14.777,32.748C14.485,32.761 14.193,32.777 13.901,32.786C13.807,32.787 13.71,32.794 13.617,32.778C13.586,32.772 13.553,32.77 13.524,32.758C13.456,32.732 13.394,32.696 13.329,32.665L13.151,32.37L13.223,32.005L13.417,31.843C13.449,31.829 13.481,31.813 13.514,31.8C13.636,31.751 13.767,31.745 13.893,31.785C13.914,31.793 13.939,31.784 13.961,31.784C14.163,31.776 14.225,31.773 14.435,31.763C14.866,31.742 15.298,31.723 15.73,31.708C15.899,31.703 16.068,31.699 16.237,31.696C16.398,31.695 16.397,31.695 16.558,31.696ZM20.157,29.635C20.254,29.649 20.343,29.682 20.42,29.745C20.607,29.897 20.658,30.17 20.538,30.38C20.484,30.474 20.401,30.539 20.312,30.598C20.21,30.665 20.101,30.722 19.99,30.771C19.565,30.958 19.098,31.05 18.642,31.116C18.023,31.205 17.397,31.24 16.772,31.252C16.16,31.263 15.548,31.25 14.937,31.218C14.307,31.186 13.678,31.134 13.052,31.055C12.679,31.008 12.306,30.952 11.937,30.875C11.665,30.818 11.389,30.754 11.133,30.643C11.057,30.609 10.977,30.572 10.912,30.519C10.827,30.449 10.766,30.351 10.741,30.243C10.681,29.977 10.852,29.705 11.118,29.644C11.215,29.622 11.309,29.633 11.403,29.663C11.454,29.685 11.502,29.713 11.553,29.735C11.679,29.784 11.809,29.82 11.94,29.851C12.082,29.885 12.225,29.914 12.368,29.94C12.789,30.017 13.214,30.071 13.639,30.116C14.263,30.18 14.891,30.222 15.519,30.242C16.155,30.263 16.793,30.262 17.43,30.227C17.877,30.203 18.325,30.162 18.766,30.083C18.957,30.048 19.147,30.007 19.333,29.949C19.453,29.912 19.573,29.868 19.684,29.809C19.739,29.779 19.788,29.742 19.84,29.707L19.876,29.687C19.941,29.657 20.003,29.64 20.074,29.633C20.115,29.632 20.115,29.632 20.157,29.635ZM17.634,25.987C17.72,25.993 17.802,26.016 17.876,26.063C18.075,26.188 18.161,26.443 18.078,26.663C18.044,26.751 17.986,26.82 17.919,26.885C17.86,26.941 17.796,26.992 17.728,27.038C17.484,27.204 17.199,27.303 16.912,27.365C16.467,27.462 16.006,27.478 15.553,27.459C15.24,27.445 14.927,27.413 14.618,27.363C14.341,27.319 14.064,27.26 13.795,27.179C13.63,27.13 13.466,27.072 13.311,26.996C13.236,26.958 13.157,26.918 13.093,26.863C13.05,26.825 13.014,26.78 12.986,26.731C12.958,26.681 12.939,26.626 12.929,26.57C12.89,26.338 13.023,26.104 13.242,26.02C13.358,25.975 13.489,25.975 13.605,26.021C13.667,26.045 13.722,26.084 13.783,26.113C13.833,26.135 13.884,26.155 13.936,26.174C14.278,26.292 14.636,26.361 14.994,26.408C15.388,26.458 15.787,26.48 16.184,26.455C16.376,26.443 16.568,26.42 16.755,26.375C16.888,26.343 17.022,26.3 17.139,26.229C17.197,26.193 17.239,26.147 17.29,26.102C17.312,26.084 17.335,26.068 17.36,26.053C17.411,26.025 17.463,26.006 17.52,25.994C17.558,25.988 17.595,25.986 17.634,25.987ZM20.792,19.765C21.684,19.765 22.409,20.49 22.409,21.382C22.409,22.274 21.684,22.999 20.792,22.999C19.9,22.999 19.175,22.274 19.175,21.382C19.175,20.49 19.9,19.765 20.792,19.765ZM9.792,19.791C10.67,19.791 11.383,20.504 11.383,21.382C11.383,22.26 10.67,22.973 9.792,22.973C8.914,22.973 8.201,22.26 8.201,21.382C8.201,20.504 8.914,19.791 9.792,19.791ZM9.716,17.746C10.116,17.75 10.515,17.777 10.909,17.848C11.169,17.896 11.429,17.961 11.673,18.065C11.86,18.145 12.037,18.249 12.185,18.39C12.243,18.444 12.298,18.507 12.337,18.576C12.364,18.625 12.383,18.679 12.393,18.734C12.432,18.961 12.305,19.192 12.092,19.28C12.041,19.302 11.985,19.315 11.929,19.318C11.807,19.325 11.685,19.287 11.589,19.211C11.547,19.177 11.517,19.134 11.478,19.098C11.458,19.082 11.438,19.068 11.417,19.054C11.298,18.985 11.168,18.938 11.036,18.901C10.892,18.861 10.744,18.832 10.596,18.81C10.088,18.734 9.566,18.726 9.055,18.773C8.891,18.788 8.726,18.809 8.565,18.842C8.452,18.865 8.335,18.892 8.23,18.942C8.199,18.957 8.173,18.979 8.144,18.998C8.119,19.012 8.095,19.024 8.069,19.035C7.988,19.064 7.906,19.076 7.821,19.065C7.572,19.031 7.382,18.81 7.387,18.559C7.388,18.493 7.403,18.428 7.429,18.368C7.455,18.308 7.494,18.253 7.541,18.208C7.599,18.153 7.668,18.108 7.738,18.07C7.871,17.998 8.016,17.949 8.162,17.91C8.583,17.797 9.025,17.762 9.46,17.748C9.545,17.747 9.631,17.746 9.716,17.746ZM21.243,17.747C21.541,17.753 21.839,17.771 22.135,17.813C22.322,17.839 22.509,17.875 22.691,17.928C22.835,17.97 22.979,18.024 23.107,18.103C23.164,18.139 23.221,18.179 23.267,18.228C23.305,18.269 23.336,18.317 23.359,18.368C23.381,18.419 23.395,18.475 23.4,18.531C23.417,18.76 23.27,18.978 23.049,19.046C22.933,19.083 22.805,19.075 22.694,19.024C22.65,19.004 22.614,18.973 22.573,18.949C22.543,18.934 22.513,18.922 22.482,18.911C22.197,18.815 21.892,18.782 21.594,18.762C21.105,18.728 20.608,18.741 20.124,18.821C19.946,18.85 19.767,18.889 19.597,18.951C19.503,18.984 19.406,19.024 19.327,19.085C19.293,19.111 19.27,19.143 19.241,19.173C19.22,19.193 19.199,19.21 19.176,19.228C19.097,19.28 19.01,19.313 18.915,19.318C18.664,19.332 18.436,19.149 18.395,18.902C18.384,18.837 18.386,18.77 18.401,18.707C18.416,18.643 18.443,18.582 18.481,18.529C18.665,18.271 18.968,18.114 19.259,18.009C19.486,17.928 19.723,17.874 19.961,17.834C20.328,17.774 20.7,17.75 21.072,17.746C21.158,17.746 21.157,17.746 21.243,17.747Z" style="fill:white;"/>
        </g>
        <g transform="matrix(1.05877,0,0,1.05877,12.9185,9.77606)">
            <path d="M4.469,19.84C3.394,19.423 2.144,20.257 1.894,21.382C1.644,22.507 1.618,25.163 2.154,25.913C2.681,26.65 4.109,26.819 4.672,26.486C5.235,26.153 4.469,19.84 4.469,19.84Z" style="fill:white;fill-rule:nonzero;"/>
        </g>
        <g transform="matrix(-1.05877,0,0,1.05877,45.16,9.76747)">
            <path d="M4.469,19.84C3.394,19.423 2.144,20.257 1.894,21.382C1.644,22.507 1.618,25.163 2.154,25.913C2.681,26.65 4.109,26.819 4.672,26.486C5.235,26.153 4.469,19.84 4.469,19.84Z" style="fill:white;fill-rule:nonzero;"/>
        </g>
        <g transform="matrix(1,0,0,1,13.8125,11.239)">
            <circle cx="9.752" cy="21.436" r="0.828" style="fill:white;"/>
        </g>
        <g transform="matrix(1,0,0,1,24.8125,11.239)">
            <circle cx="9.752" cy="21.436" r="0.828" style="fill:white;"/>
        </g>
    </g>
    <g transform="matrix(1.12643,0,0,1.12643,1.62811,4.69592)">
        <circle cx="34.065" cy="26.903" r="22.389" style="fill:none;stroke-width:1.33px;stroke:white;"/>
    </g>
    <g transform="matrix(1,0,0,1,-7.86679,22.6961)">
        <text x="21.86px" y="53.999px" style="font-family:'Helvetica';font-size:12px;fill:white;">Bekĳk CV</text>
    </g>
</svg>
